<svg width="40" height="40" viewBox="0 0 40 40" fill="none" xmlns="http://www.w3.org/2000/svg">
<rect width="40" height="40" rx="20" fill="#BD7E6D"/>
<path d="M20 12C15.584 12 12 15.584 12 20C12 24.416 15.584 28 20 28C24.416 28 28 24.416 28 20C28 15.584 24.416 12 20 12ZM23.2 20.8H20.8V23.2C20.8 23.64 20.44 24 20 24C19.56 24 19.2 23.64 19.2 23.2V20.8H16.8C16.36 20.8 16 20.44 16 20C16 19.56 16.36 19.2 16.8 19.2H19.2V16.8C19.2 16.36 19.56 16 20 16C20.44 16 20.8 16.36 20.8 16.8V19.2H23.2C23.64 19.2 24 19.56 24 20C24 20.44 23.64 20.8 23.2 20.8Z" fill="#F9F9F9"/>
</svg>
