<svg width="16" height="16" viewBox="0 0 16 16" fill="none" xmlns="http://www.w3.org/2000/svg">
<path d="M14.2014 1.77778H8.80546C8.31084 1.77778 7.90614 1.37778 7.90614 0.888889C7.90614 0.4 8.31084 0 8.80546 0H14.2014C15.1906 0 16 0.8 16 1.77778V14.2222C16 15.2 15.1906 16 14.2014 16H8.80546C8.31084 16 7.90614 15.6 7.90614 15.1111C7.90614 14.6222 8.31084 14.2222 8.80546 14.2222H14.2014V1.77778Z" fill="#F9F9F9"/>
<path d="M0.127446 7.68892L2.63654 5.20892C2.92432 4.92447 3.40995 5.12003 3.40995 5.52003V7.11114H9.70517C10.1998 7.11114 10.6045 7.51114 10.6045 8.00003C10.6045 8.48892 10.1998 8.88892 9.70517 8.88892H3.40995V10.48C3.40995 10.88 2.92432 11.0756 2.64553 10.7911L0.136439 8.31114C-0.0434246 8.14225 -0.0434246 7.8578 0.127446 7.68892Z" fill="#F9F9F9"/>
</svg>
