<svg width="16" height="16" viewBox="0 0 16 16" fill="none" xmlns="http://www.w3.org/2000/svg">
<path d="M14.6552 1.94531H4.56903C4.10506 1.94531 3.74196 2.18066 3.4999 2.53703L0.110948 7.62718C-0.0369826 7.8558 -0.0369826 8.14493 0.110948 8.37355L3.4999 13.457C3.74196 13.8066 4.10506 14.0487 4.56903 14.0487H14.6552C15.3948 14.0487 16 13.4435 16 12.7039V3.29013C16 2.55048 15.3948 1.94531 14.6552 1.94531ZM12.1673 10.8884C11.905 11.1506 11.4814 11.1506 11.2192 10.8884L9.2759 8.9451L7.33263 10.8884C7.07039 11.1506 6.64677 11.1506 6.38453 10.8884C6.12229 10.6261 6.12229 10.2025 6.38453 9.94027L8.3278 7.997L6.38453 6.05374C6.12229 5.7915 6.12229 5.36788 6.38453 5.10564C6.64677 4.8434 7.07039 4.8434 7.33263 5.10564L9.2759 7.04891L11.2192 5.10564C11.4814 4.8434 11.905 4.8434 12.1673 5.10564C12.4295 5.36788 12.4295 5.7915 12.1673 6.05374L10.224 7.997L12.1673 9.94027C12.4228 10.1958 12.4228 10.6261 12.1673 10.8884Z" fill="#F9F9F9"/>
</svg>
