<svg width="13" height="12" viewBox="0 0 13 12" fill="none" xmlns="http://www.w3.org/2000/svg">
<path d="M6.77876 3.60938C5.19412 3.60938 3.75898 4.20137 2.65272 5.16412L1.52254 4.03394C1.14582 3.65721 0.5 3.92032 0.5 4.45252V7.79522C0.5 8.1241 0.76909 8.39319 1.09798 8.39319H4.44067C4.97287 8.39319 5.24196 7.74738 4.86523 7.37065L3.7231 6.22852C4.55428 5.53486 5.6127 5.10432 6.78474 5.10432C8.67435 5.10432 10.3068 6.2046 11.0842 7.79522C11.2456 8.13008 11.6284 8.29752 11.9812 8.17792C12.4057 8.04039 12.621 7.55602 12.4296 7.1494C11.4011 5.05648 9.26036 3.60938 6.77876 3.60938Z" fill="#F9F9F9"/>
</svg>
