<svg width="33" height="32" viewBox="0 0 33 32" fill="none" xmlns="http://www.w3.org/2000/svg">
<path d="M29.8104 3.89844H9.63805C8.71013 3.89844 7.98393 4.36912 7.49979 5.08188L0.721895 15.2622C0.426035 15.7194 0.426035 16.2977 0.721895 16.7549L7.49979 26.9218C7.98393 27.6211 8.71013 28.1052 9.63805 28.1052H29.8104C31.2897 28.1052 32.5 26.8949 32.5 25.4156V6.58808C32.5 5.10878 31.2897 3.89844 29.8104 3.89844ZM24.8345 21.7845C24.31 22.309 23.4628 22.309 22.9383 21.7845L19.0518 17.898L15.1653 21.7845C14.6408 22.309 13.7935 22.309 13.2691 21.7845C12.7446 21.2601 12.7446 20.4128 13.2691 19.8884L17.1556 16.0018L13.2691 12.1153C12.7446 11.5908 12.7446 10.7436 13.2691 10.2191C13.7935 9.69461 14.6408 9.69461 15.1653 10.2191L19.0518 14.1056L22.9383 10.2191C23.4628 9.69461 24.31 9.69461 24.8345 10.2191C25.359 10.7436 25.359 11.5908 24.8345 12.1153L20.948 16.0018L24.8345 19.8884C25.3456 20.3994 25.3456 21.2601 24.8345 21.7845Z" fill="#F9F9F9"/>
</svg>
