<svg width="32" height="32" viewBox="0 0 32 32" fill="none" xmlns="http://www.w3.org/2000/svg">
<path d="M29.3104 3.89844H9.13805C8.21013 3.89844 7.48393 4.36912 6.99979 5.08188L0.221895 15.2622C-0.0739651 15.7194 -0.0739651 16.2977 0.221895 16.7549L6.99979 26.9218C7.48393 27.6211 8.21013 28.1052 9.13805 28.1052H29.3104C30.7897 28.1052 32 26.8949 32 25.4156V6.58808C32 5.10878 30.7897 3.89844 29.3104 3.89844ZM24.3345 21.7845C23.81 22.309 22.9628 22.309 22.4383 21.7845L18.5518 17.898L14.6653 21.7845C14.1408 22.309 13.2935 22.309 12.7691 21.7845C12.2446 21.2601 12.2446 20.4128 12.7691 19.8884L16.6556 16.0018L12.7691 12.1153C12.2446 11.5908 12.2446 10.7436 12.7691 10.2191C13.2935 9.69461 14.1408 9.69461 14.6653 10.2191L18.5518 14.1056L22.4383 10.2191C22.9628 9.69461 23.81 9.69461 24.3345 10.2191C24.859 10.7436 24.859 11.5908 24.3345 12.1153L20.448 16.0018L24.3345 19.8884C24.8456 20.3994 24.8456 21.2601 24.3345 21.7845Z" fill="#F9F9F9"/>
</svg>
