<svg width="40" height="40" viewBox="0 0 40 40" fill="none" xmlns="http://www.w3.org/2000/svg">
<rect width="40" height="40" rx="20" fill="#999100"/>
<path d="M21.5937 17.6H18.3937C17.9537 17.6 17.5938 17.24 17.5938 16.8C17.5938 16.36 17.9537 16 18.3937 16H21.5937C22.0337 16 22.3937 16.36 22.3937 16.8C22.3937 17.24 22.0337 17.6 21.5937 17.6Z" fill="#F9F9F9"/>
<path d="M21.5937 20.0004H18.3937C17.9537 20.0004 17.5938 19.6404 17.5938 19.2004C17.5938 18.7604 17.9537 18.4004 18.3937 18.4004H21.5937C22.0337 18.4004 22.3937 18.7604 22.3937 19.2004C22.3937 19.6404 22.0337 20.0004 21.5937 20.0004Z" fill="#F9F9F9"/>
<path d="M25.9969 13.2L24.7969 12L23.5969 13.2L22.3969 12L21.1969 13.2L19.9969 12L18.7969 13.2L17.5969 12L16.3969 13.2L15.1969 12V23.2H13.5969C13.1569 23.2 12.7969 23.56 12.7969 24V25.6C12.7969 26.928 13.8689 28 15.1969 28H24.7969C26.1249 28 27.1969 26.928 27.1969 25.6V12L25.9969 13.2ZM22.3969 26.4H15.1969C14.7569 26.4 14.3969 26.04 14.3969 25.6V24.8H16.7969H19.9969H22.3969V26.4ZM25.5969 25.6C25.5969 26.04 25.2369 26.4 24.7969 26.4C24.3569 26.4 23.9969 26.04 23.9969 25.6V24C23.9969 23.56 23.6369 23.2 23.1969 23.2H21.5969H19.9969H16.7969V14.4H25.5969V25.6Z" fill="#F9F9F9"/>
<path d="M23.9953 17.6C24.4371 17.6 24.7953 17.2418 24.7953 16.8C24.7953 16.3582 24.4371 16 23.9953 16C23.5535 16 23.1953 16.3582 23.1953 16.8C23.1953 17.2418 23.5535 17.6 23.9953 17.6Z" fill="#F9F9F9"/>
<path d="M23.9953 20.0004C24.4371 20.0004 24.7953 19.6422 24.7953 19.2004C24.7953 18.7586 24.4371 18.4004 23.9953 18.4004C23.5535 18.4004 23.1953 18.7586 23.1953 19.2004C23.1953 19.6422 23.5535 20.0004 23.9953 20.0004Z" fill="#F9F9F9"/>
</svg>
