<svg width="40" height="40" viewBox="0 0 40 40" fill="none" xmlns="http://www.w3.org/2000/svg">
<rect width="40" height="40" rx="20" fill="#C18333"/>
<path d="M20 12C15.6 12 12 15.6 12 20C12 24.4 15.6 28 20 28C24.4 28 28 24.4 28 20C28 15.6 24.4 12 20 12ZM13.6 20C13.6 16.48 16.48 13.6 20 13.6C21.44 13.6 22.8 14.08 23.92 14.96L14.96 23.92C14.08 22.8 13.6 21.44 13.6 20ZM20 26.4C18.56 26.4 17.2 25.92 16.08 25.04L25.04 16.08C25.92 17.2 26.4 18.56 26.4 20C26.4 23.52 23.52 26.4 20 26.4Z" fill="#F9F9F9"/>
</svg>
