<svg width="40" height="40" viewBox="0 0 40 40" fill="none" xmlns="http://www.w3.org/2000/svg">
<rect width="40" height="40" rx="20" fill="#817CC6"/>
<path d="M12.8889 25.3346H27.1111C27.6 25.3346 28 24.9346 28 24.4457C28 23.9569 27.6 23.5569 27.1111 23.5569H12.8889C12.4 23.5569 12 23.9569 12 24.4457C12 24.9346 12.4 25.3346 12.8889 25.3346ZM12.8889 20.8902H27.1111C27.6 20.8902 28 20.4902 28 20.0013C28 19.5124 27.6 19.1124 27.1111 19.1124H12.8889C12.4 19.1124 12 19.5124 12 20.0013C12 20.4902 12.4 20.8902 12.8889 20.8902ZM12 15.5569C12 16.0457 12.4 16.4457 12.8889 16.4457H27.1111C27.6 16.4457 28 16.0457 28 15.5569C28 15.068 27.6 14.668 27.1111 14.668H12.8889C12.4 14.668 12 15.068 12 15.5569Z" fill="#F9F9F9"/>
</svg>
