<svg width="16" height="16" viewBox="0 0 16 16" fill="none" xmlns="http://www.w3.org/2000/svg">
<path d="M0.888889 13.3337H15.1111C15.6 13.3337 16 12.9337 16 12.4448C16 11.9559 15.6 11.5559 15.1111 11.5559H0.888889C0.4 11.5559 0 11.9559 0 12.4448C0 12.9337 0.4 13.3337 0.888889 13.3337ZM0.888889 8.88921H15.1111C15.6 8.88921 16 8.48921 16 8.00033C16 7.51144 15.6 7.11144 15.1111 7.11144H0.888889C0.4 7.11144 0 7.51144 0 8.00033C0 8.48921 0.4 8.88921 0.888889 8.88921ZM0 3.55588C0 4.04477 0.4 4.44477 0.888889 4.44477H15.1111C15.6 4.44477 16 4.04477 16 3.55588C16 3.06699 15.6 2.66699 15.1111 2.66699H0.888889C0.4 2.66699 0 3.06699 0 3.55588Z" fill="#F9F9F9"/>
</svg>
