<svg width="16" height="16" viewBox="0 0 16 16" fill="none" xmlns="http://www.w3.org/2000/svg">
<path d="M0.888889 13.3346H15.1111C15.6 13.3346 16 12.9346 16 12.4457C16 11.9569 15.6 11.5569 15.1111 11.5569H0.888889C0.4 11.5569 0 11.9569 0 12.4457C0 12.9346 0.4 13.3346 0.888889 13.3346ZM0.888889 8.89019H15.1111C15.6 8.89019 16 8.49019 16 8.0013C16 7.51241 15.6 7.11241 15.1111 7.11241H0.888889C0.4 7.11241 0 7.51241 0 8.0013C0 8.49019 0.4 8.89019 0.888889 8.89019ZM0 3.55686C0 4.04575 0.4 4.44575 0.888889 4.44575H15.1111C15.6 4.44575 16 4.04575 16 3.55686C16 3.06797 15.6 2.66797 15.1111 2.66797H0.888889C0.4 2.66797 0 3.06797 0 3.55686Z" fill="#F9F9F9"/>
</svg>
