<svg width="40" height="40" viewBox="0 0 40 40" fill="none" xmlns="http://www.w3.org/2000/svg">
<rect width="40" height="40" rx="20" fill="#3B8BA8"/>
<path d="M26.4 13.6016H13.6C12.712 13.6016 12.008 14.3136 12.008 15.2016L12 24.8016C12 25.6896 12.712 26.4016 13.6 26.4016H26.4C27.288 26.4016 28 25.6896 28 24.8016V15.2016C28 14.3136 27.288 13.6016 26.4 13.6016ZM25.6 24.8016H14.4C13.96 24.8016 13.6 24.4416 13.6 24.0016V20.0016H26.4V24.0016C26.4 24.4416 26.04 24.8016 25.6 24.8016ZM26.4 16.8016H13.6V15.2016H26.4V16.8016Z" fill="#F9F9F9"/>
</svg>
