<svg width="40" height="40" viewBox="0 0 40 40" fill="none" xmlns="http://www.w3.org/2000/svg">
<rect width="40" height="40" rx="20" fill="#3B8BA8"/>
<path d="M13.7778 12.8906C12.7972 12.8906 12 13.6878 12 14.6684V24.4462C12 25.4267 12.7972 26.224 13.7778 26.224H14.2222L14.6667 27.1128H16.4444L16.8889 26.224H23.1111L23.5556 27.1128H25.3333L25.7778 26.224H26.2222C27.2028 26.224 28 25.4267 28 24.4462V14.6684C28 13.6878 27.2028 12.8906 26.2222 12.8906H13.7778ZM18.2222 21.7795C18.8116 21.7795 19.3768 21.5454 19.7936 21.1286C20.2103 20.7119 20.4444 20.1467 20.4444 19.5573C20.4444 18.9679 20.2103 18.4027 19.7936 17.9859C19.3768 17.5692 18.8116 17.3351 18.2222 17.3351C17.6329 17.3351 17.0676 17.5692 16.6509 17.9859C16.2341 18.4027 16 18.9679 16 19.5573C16 20.1467 16.2341 20.7119 16.6509 21.1286C17.0676 21.5454 17.6329 21.7795 18.2222 21.7795ZM18.2222 15.1128C19.401 15.1128 20.5314 15.5811 21.3649 16.4146C22.1984 17.2481 22.6667 18.3786 22.6667 19.5573C22.6667 20.736 22.1984 21.8665 21.3649 22.7C20.5314 23.5335 19.401 24.0017 18.2222 24.0017C17.0435 24.0017 15.913 23.5335 15.0795 22.7C14.246 21.8665 13.7778 20.736 13.7778 19.5573C13.7778 18.3786 14.246 17.2481 15.0795 16.4146C15.913 15.5811 17.0435 15.1128 18.2222 15.1128ZM25.3333 19.0378V22.224C25.3333 22.4684 25.1333 22.6684 24.8889 22.6684C24.6444 22.6684 24.4444 22.4684 24.4444 22.224V19.0378C23.9278 18.8545 23.5556 18.3601 23.5556 17.7795C23.5556 17.0434 24.1528 16.4462 24.8889 16.4462C25.625 16.4462 26.2222 17.0434 26.2222 17.7795C26.2222 18.3601 25.85 18.8545 25.3333 19.0378Z" fill="#F9F9F9"/>
</svg>
