<svg width="25" height="24" viewBox="0 0 25 24" fill="none" xmlns="http://www.w3.org/2000/svg">
<path d="M12.8987 10.5333C9.87203 9.74667 8.8987 8.93333 8.8987 7.66667C8.8987 6.21333 10.2454 5.2 12.4987 5.2C14.392 5.2 15.3387 5.92 15.6854 7.06667C15.8454 7.6 16.2854 8 16.8454 8H17.2454C18.1254 8 18.752 7.13333 18.4454 6.30667C17.8854 4.73333 16.5787 3.42667 14.4987 2.92V2C14.4987 0.893333 13.6054 0 12.4987 0C11.392 0 10.4987 0.893333 10.4987 2V2.88C7.91203 3.44 5.83203 5.12 5.83203 7.69333C5.83203 10.7733 8.3787 12.3067 12.0987 13.2C15.432 14 16.0987 15.1733 16.0987 16.4133C16.0987 17.3333 15.4454 18.8 12.4987 18.8C10.2987 18.8 9.16536 18.0133 8.72536 16.8933C8.52536 16.3733 8.07203 16 7.52536 16H7.15203C6.2587 16 5.63203 16.9067 5.96536 17.7333C6.72536 19.5867 8.4987 20.68 10.4987 21.1067V22C10.4987 23.1067 11.392 24 12.4987 24C13.6054 24 14.4987 23.1067 14.4987 22V21.1333C17.0987 20.64 19.1654 19.1333 19.1654 16.4C19.1654 12.6133 15.9254 11.32 12.8987 10.5333Z" fill="#F9F9F9"/>
</svg>
