<svg width="10" height="16" viewBox="0 0 10 16" fill="none" xmlns="http://www.w3.org/2000/svg">
<path d="M5.26678 7.02222C3.249 6.49778 2.60011 5.95556 2.60011 5.11111C2.60011 4.14222 3.49789 3.46667 5.00011 3.46667C6.26233 3.46667 6.89344 3.94667 7.12455 4.71111C7.23122 5.06667 7.52455 5.33333 7.89789 5.33333H8.16455C8.75122 5.33333 9.169 4.75556 8.96455 4.20444C8.59122 3.15556 7.72011 2.28444 6.33344 1.94667V1.33333C6.33344 0.595556 5.73789 0 5.00011 0C4.26233 0 3.66678 0.595556 3.66678 1.33333V1.92C1.94233 2.29333 0.555664 3.41333 0.555664 5.12889C0.555664 7.18222 2.25344 8.20444 4.73344 8.8C6.95566 9.33333 7.40011 10.1156 7.40011 10.9422C7.40011 11.5556 6.96455 12.5333 5.00011 12.5333C3.53344 12.5333 2.77789 12.0089 2.48455 11.2622C2.35122 10.9156 2.049 10.6667 1.68455 10.6667H1.43566C0.840108 10.6667 0.422331 11.2711 0.644553 11.8222C1.15122 13.0578 2.33344 13.7867 3.66678 14.0711V14.6667C3.66678 15.4044 4.26233 16 5.00011 16C5.73789 16 6.33344 15.4044 6.33344 14.6667V14.0889C8.06678 13.76 9.44455 12.7556 9.44455 10.9333C9.44455 8.40889 7.28455 7.54667 5.26678 7.02222Z" fill="#F9F9F9"/>
</svg>
