<svg width="17" height="16" viewBox="0 0 17 16" fill="none" xmlns="http://www.w3.org/2000/svg">
<path d="M16.832 5.08878V12.3615C16.832 13.1615 16.1775 13.8161 15.3775 13.8161H3.74112C3.34112 13.8161 3.01385 13.4888 3.01385 13.0888C3.01385 12.6888 3.34112 12.3615 3.74112 12.3615H15.3775V5.08878C15.3775 4.68878 15.7048 4.36151 16.1048 4.36151C16.5048 4.36151 16.832 4.68878 16.832 5.08878ZM3.01385 10.907C1.80658 10.907 0.832031 9.93242 0.832031 8.72514V4.36151C0.832031 3.15423 1.80658 2.17969 3.01385 2.17969H11.7411C12.9484 2.17969 13.9229 3.15423 13.9229 4.36151V9.45241C13.9229 10.2524 13.2684 10.907 12.4684 10.907H3.01385ZM5.19567 6.54332C5.19567 7.7506 6.17021 8.72514 7.37749 8.72514C8.58476 8.72514 9.5593 7.7506 9.5593 6.54332C9.5593 5.33605 8.58476 4.36151 7.37749 4.36151C6.17021 4.36151 5.19567 5.33605 5.19567 6.54332Z" fill="#699753"/>
</svg>
