<svg width="33" height="30" viewBox="0 0 33 30" fill="none" xmlns="http://www.w3.org/2000/svg">
<path d="M4.05556 0.78125C2.09444 0.78125 0.5 2.37569 0.5 4.33681V23.8924C0.5 25.8535 2.09444 27.4479 4.05556 27.4479H4.94444L5.83333 29.2257H9.38889L10.2778 27.4479H22.7222L23.6111 29.2257H27.1667L28.0556 27.4479H28.9444C30.9056 27.4479 32.5 25.8535 32.5 23.8924V4.33681C32.5 2.37569 30.9056 0.78125 28.9444 0.78125H4.05556ZM12.9444 18.559C14.1232 18.559 15.2536 18.0908 16.0871 17.2573C16.9206 16.4238 17.3889 15.2933 17.3889 14.1146C17.3889 12.9358 16.9206 11.8054 16.0871 10.9719C15.2536 10.1384 14.1232 9.67014 12.9444 9.67014C11.7657 9.67014 10.6352 10.1384 9.80175 10.9719C8.96825 11.8054 8.5 12.9358 8.5 14.1146C8.5 15.2933 8.96825 16.4238 9.80175 17.2573C10.6352 18.0908 11.7657 18.559 12.9444 18.559ZM12.9444 5.22569C15.3019 5.22569 17.5628 6.1622 19.2298 7.82919C20.8968 9.49618 21.8333 11.7571 21.8333 14.1146C21.8333 16.4721 20.8968 18.733 19.2298 20.4C17.5628 22.067 15.3019 23.0035 12.9444 23.0035C10.587 23.0035 8.32604 22.067 6.65905 20.4C4.99206 18.733 4.05556 16.4721 4.05556 14.1146C4.05556 11.7571 4.99206 9.49618 6.65905 7.82919C8.32604 6.1622 10.587 5.22569 12.9444 5.22569ZM27.1667 13.0757V19.4479C27.1667 19.9368 26.7667 20.3368 26.2778 20.3368C25.7889 20.3368 25.3889 19.9368 25.3889 19.4479V13.0757C24.3556 12.709 23.6111 11.7201 23.6111 10.559C23.6111 9.08681 24.8056 7.89236 26.2778 7.89236C27.75 7.89236 28.9444 9.08681 28.9444 10.559C28.9444 11.7201 28.2 12.709 27.1667 13.0757Z" fill="#F9F9F9"/>
</svg>
