<svg width="40" height="40" viewBox="0 0 40 40" fill="none" xmlns="http://www.w3.org/2000/svg">
<rect width="40" height="40" rx="20" fill="#BD7E6D"/>
<path d="M27.8797 16.4733L25.5041 14.0978C25.2317 13.8253 24.7719 14.0126 24.7719 14.3958V15.9199H12.8515C12.3832 15.9199 12 16.3031 12 16.7714C12 17.2397 12.3832 17.6228 12.8515 17.6228H24.7719V19.1469C24.7719 19.5301 25.2317 19.7174 25.4956 19.4449L27.8712 17.0694C28.0415 16.9076 28.0415 16.6351 27.8797 16.4733Z" fill="#F9F9F9"/>
<path d="M27.1485 22.3769H15.2281V20.8528C15.2281 20.4697 14.7683 20.2823 14.5044 20.5548L12.1288 22.9304C11.9585 23.0922 11.9585 23.3646 12.1203 23.5264L14.4959 25.902C14.7683 26.1744 15.2281 25.9871 15.2281 25.604V24.0798H27.1485C27.6168 24.0798 28 23.6967 28 23.2284C28 22.7601 27.6168 22.3769 27.1485 22.3769Z" fill="#F9F9F9"/>
</svg>
