<svg width="16" height="14" viewBox="0 0 16 14" fill="none" xmlns="http://www.w3.org/2000/svg">
<path d="M7.98021 0.609273L0.593648 7.99584C-0.197883 8.78737 -0.197883 10.0696 0.593648 10.8612L3.12655 13.3941C3.50648 13.774 4.02256 13.9861 4.5608 13.9861H7.89473H8.19234H14.9868C15.5472 13.9861 16 13.5334 16 12.973C16 12.4126 15.5472 11.9598 14.9868 11.9598H11.0577L15.1958 7.82487C15.9873 7.03334 15.9873 5.75106 15.1958 4.95953L10.8487 0.609273C10.0572 -0.182258 8.77491 -0.182258 7.98338 0.609273H7.98021ZM8.19234 11.963H7.89473H4.55763L2.02474 9.43009L5.97289 5.48194L10.3231 9.83219L8.19234 11.963Z" fill="#F9F9F9"/>
</svg>
