<svg width="32" height="32" viewBox="0 0 32 32" fill="none" xmlns="http://www.w3.org/2000/svg">
<path d="M15.9604 3.21855L1.1873 17.9917C-0.395765 19.5747 -0.395765 22.1393 1.1873 23.7224L6.25309 28.7882C7.01296 29.548 8.04512 29.9723 9.1216 29.9723H15.7895H16.3847H29.9737C31.0945 29.9723 32 29.0668 32 27.946C32 26.8252 31.0945 25.9196 29.9737 25.9196H22.1154L30.3916 17.6497C31.9747 16.0667 31.9747 13.5021 30.3916 11.9191L21.6974 3.21855C20.1144 1.63548 17.5498 1.63548 15.9668 3.21855H15.9604ZM16.3847 25.926H15.7895H9.11527L4.04947 20.8602L11.9458 12.9639L20.6463 21.6644L16.3847 25.926Z" fill="#F9F9F9"/>
</svg>
