<svg width="520" height="344" viewBox="0 0 520 344" fill="none" xmlns="http://www.w3.org/2000/svg">
<g filter="url(#filter0_d_5333_20799)">
<rect x="15" y="15" width="480" height="304" rx="32" fill="#353639" shape-rendering="crispEdges"/>
<path d="M299.542 97.6605L251.563 145.676C249.691 147.549 246.669 147.549 244.797 145.676L231.219 132.088C229.348 130.215 229.348 127.19 231.219 125.318C233.09 123.445 236.113 123.445 237.984 125.318L248.156 135.497L292.729 90.8902C294.6 89.0176 297.623 89.0176 299.494 90.8902C301.414 92.7628 301.414 95.7878 299.542 97.6605ZM273.058 82.5354C264.949 79.2223 255.737 78.0699 246.141 79.7985C226.613 83.3037 211.02 99.0529 207.709 118.595C202.239 151.006 229.204 178.76 261.398 174.582C280.398 172.133 296.328 157.969 301.318 139.482C303.237 132.424 303.429 125.606 302.325 119.22C301.701 115.378 296.951 113.89 294.169 116.627C293.065 117.731 292.585 119.364 292.873 120.9C293.929 127.286 293.449 134.105 290.378 141.355C284.813 154.367 272.722 163.923 258.664 165.219C234.194 167.476 213.898 146.733 216.921 122.101C218.984 105.103 232.659 91.2743 249.595 88.9215C257.896 87.7692 265.765 89.3537 272.482 92.8108C274.353 93.7712 276.608 93.435 278.095 91.9465C280.398 89.6418 279.823 85.7525 276.944 84.264C275.648 83.6878 274.353 83.0636 273.058 82.5354Z" fill="#5E8708"/>
<path d="M191.213 242.384C187.757 242.384 185.09 241.467 183.213 239.632C181.357 237.776 180.429 234.907 180.429 231.024C180.429 228.443 180.877 226.32 181.773 224.656C182.669 222.971 183.97 221.723 185.677 220.912C187.384 220.08 189.432 219.664 191.821 219.664C193.25 219.664 194.594 219.824 195.853 220.144C197.112 220.464 198.221 220.955 199.181 221.616C200.162 222.277 200.92 223.109 201.453 224.112C202.008 225.093 202.285 226.267 202.285 227.632H197.453C197.453 226.971 197.304 226.384 197.005 225.872C196.728 225.36 196.333 224.933 195.821 224.592C195.309 224.251 194.722 223.995 194.061 223.824C193.4 223.653 192.706 223.568 191.981 223.568C190.872 223.568 189.901 223.717 189.069 224.016C188.237 224.293 187.544 224.731 186.989 225.328C186.456 225.904 186.05 226.629 185.773 227.504C185.496 228.379 185.357 229.392 185.357 230.544V231.504C185.357 233.104 185.592 234.416 186.061 235.44C186.53 236.464 187.234 237.232 188.173 237.744C189.112 238.235 190.274 238.48 191.661 238.48C192.813 238.48 193.826 238.309 194.701 237.968C195.597 237.605 196.29 237.093 196.781 236.432C197.293 235.771 197.549 234.96 197.549 234V233.776H190.989V230.128H202.285V242H199.149L198.733 239.632C198.093 240.251 197.4 240.763 196.653 241.168C195.928 241.573 195.117 241.872 194.221 242.064C193.325 242.277 192.322 242.384 191.213 242.384ZM211.941 242.384C210.234 242.384 208.88 241.915 207.877 240.976C206.874 240.037 206.373 238.523 206.373 236.432V225.168H210.821V235.696C210.821 236.251 210.885 236.72 211.013 237.104C211.141 237.467 211.322 237.765 211.557 238C211.813 238.235 212.122 238.405 212.485 238.512C212.848 238.619 213.253 238.672 213.701 238.672C214.362 238.672 214.96 238.512 215.493 238.192C216.026 237.872 216.442 237.435 216.741 236.88C217.04 236.304 217.189 235.664 217.189 234.96V225.168H221.637V242H217.989L217.669 239.696H217.445C217.04 240.229 216.56 240.699 216.005 241.104C215.472 241.509 214.864 241.819 214.181 242.032C213.498 242.267 212.752 242.384 211.941 242.384ZM230.168 242.384C229.613 242.384 229.016 242.32 228.376 242.192C227.757 242.064 227.171 241.84 226.616 241.52C226.061 241.179 225.603 240.699 225.24 240.08C224.899 239.44 224.728 238.629 224.728 237.648C224.728 236.475 224.984 235.504 225.496 234.736C226.008 233.968 226.733 233.371 227.672 232.944C228.632 232.496 229.773 232.187 231.096 232.016C232.419 231.845 233.88 231.76 235.48 231.76V230.512C235.48 230.021 235.395 229.595 235.224 229.232C235.075 228.869 234.797 228.581 234.392 228.368C234.008 228.155 233.464 228.048 232.76 228.048C232.056 228.048 231.48 228.133 231.032 228.304C230.605 228.475 230.296 228.699 230.104 228.976C229.933 229.232 229.848 229.52 229.848 229.84V230.224H225.528C225.507 230.117 225.496 230.021 225.496 229.936C225.496 229.829 225.496 229.701 225.496 229.552C225.496 228.571 225.795 227.728 226.392 227.024C226.989 226.299 227.832 225.744 228.92 225.36C230.008 224.976 231.277 224.784 232.728 224.784C234.285 224.784 235.587 224.987 236.632 225.392C237.699 225.797 238.509 226.395 239.064 227.184C239.64 227.973 239.928 228.965 239.928 230.16V237.808C239.928 238.192 240.035 238.48 240.248 238.672C240.483 238.843 240.739 238.928 241.016 238.928H242.072V241.84C241.859 241.947 241.528 242.053 241.08 242.16C240.632 242.288 240.088 242.352 239.448 242.352C238.829 242.352 238.275 242.256 237.784 242.064C237.315 241.893 236.92 241.648 236.6 241.328C236.28 240.987 236.056 240.581 235.928 240.112H235.704C235.341 240.56 234.893 240.955 234.36 241.296C233.848 241.637 233.24 241.904 232.536 242.096C231.853 242.288 231.064 242.384 230.168 242.384ZM231.672 239.024C232.269 239.024 232.803 238.939 233.272 238.768C233.741 238.576 234.136 238.331 234.456 238.032C234.776 237.712 235.021 237.328 235.192 236.88C235.384 236.432 235.48 235.952 235.48 235.44V234.512C234.285 234.512 233.219 234.597 232.28 234.768C231.341 234.917 230.595 235.184 230.04 235.568C229.507 235.952 229.24 236.485 229.24 237.168C229.24 237.552 229.336 237.883 229.528 238.16C229.72 238.437 229.997 238.651 230.36 238.8C230.723 238.949 231.16 239.024 231.672 239.024ZM244.282 242V225.168H247.962L248.314 227.792H248.538C248.752 227.237 249.029 226.736 249.37 226.288C249.712 225.819 250.138 225.445 250.65 225.168C251.162 224.891 251.76 224.752 252.442 224.752C252.805 224.752 253.136 224.795 253.434 224.88C253.733 224.944 253.957 225.008 254.106 225.072V229.104H252.73C252.069 229.104 251.482 229.2 250.97 229.392C250.48 229.563 250.064 229.84 249.722 230.224C249.381 230.608 249.125 231.077 248.954 231.632C248.805 232.187 248.73 232.837 248.73 233.584V242H244.282ZM262.078 242.384C260.691 242.384 259.486 242.075 258.462 241.456C257.459 240.816 256.681 239.845 256.126 238.544C255.571 237.243 255.294 235.579 255.294 233.552C255.294 231.525 255.571 229.872 256.126 228.592C256.702 227.291 257.481 226.331 258.462 225.712C259.465 225.093 260.617 224.784 261.918 224.784C262.643 224.784 263.315 224.869 263.934 225.04C264.574 225.189 265.129 225.435 265.598 225.776C266.089 226.117 266.505 226.533 266.846 227.024H267.038V218.864H271.486V242H267.838L267.486 239.728H267.262C266.707 240.624 265.982 241.296 265.086 241.744C264.19 242.171 263.187 242.384 262.078 242.384ZM263.486 238.736C264.318 238.736 264.99 238.544 265.502 238.16C266.035 237.776 266.43 237.221 266.686 236.496C266.942 235.771 267.07 234.907 267.07 233.904V233.328C267.07 232.581 266.995 231.899 266.846 231.28C266.718 230.661 266.505 230.149 266.206 229.744C265.907 229.317 265.534 228.997 265.086 228.784C264.638 228.549 264.105 228.432 263.486 228.432C262.59 228.432 261.875 228.613 261.342 228.976C260.809 229.317 260.425 229.851 260.19 230.576C259.955 231.28 259.838 232.165 259.838 233.232V233.968C259.838 235.035 259.955 235.92 260.19 236.624C260.425 237.328 260.809 237.861 261.342 238.224C261.875 238.565 262.59 238.736 263.486 238.736ZM280.043 242.384C279.488 242.384 278.891 242.32 278.251 242.192C277.632 242.064 277.046 241.84 276.491 241.52C275.936 241.179 275.478 240.699 275.115 240.08C274.774 239.44 274.603 238.629 274.603 237.648C274.603 236.475 274.859 235.504 275.371 234.736C275.883 233.968 276.608 233.371 277.547 232.944C278.507 232.496 279.648 232.187 280.971 232.016C282.294 231.845 283.755 231.76 285.355 231.76V230.512C285.355 230.021 285.27 229.595 285.099 229.232C284.95 228.869 284.672 228.581 284.267 228.368C283.883 228.155 283.339 228.048 282.635 228.048C281.931 228.048 281.355 228.133 280.907 228.304C280.48 228.475 280.171 228.699 279.979 228.976C279.808 229.232 279.723 229.52 279.723 229.84V230.224H275.403C275.382 230.117 275.371 230.021 275.371 229.936C275.371 229.829 275.371 229.701 275.371 229.552C275.371 228.571 275.67 227.728 276.267 227.024C276.864 226.299 277.707 225.744 278.795 225.36C279.883 224.976 281.152 224.784 282.603 224.784C284.16 224.784 285.462 224.987 286.507 225.392C287.574 225.797 288.384 226.395 288.939 227.184C289.515 227.973 289.803 228.965 289.803 230.16V237.808C289.803 238.192 289.91 238.48 290.123 238.672C290.358 238.843 290.614 238.928 290.891 238.928H291.947V241.84C291.734 241.947 291.403 242.053 290.955 242.16C290.507 242.288 289.963 242.352 289.323 242.352C288.704 242.352 288.15 242.256 287.659 242.064C287.19 241.893 286.795 241.648 286.475 241.328C286.155 240.987 285.931 240.581 285.803 240.112H285.579C285.216 240.56 284.768 240.955 284.235 241.296C283.723 241.637 283.115 241.904 282.411 242.096C281.728 242.288 280.939 242.384 280.043 242.384ZM281.547 239.024C282.144 239.024 282.678 238.939 283.147 238.768C283.616 238.576 284.011 238.331 284.331 238.032C284.651 237.712 284.896 237.328 285.067 236.88C285.259 236.432 285.355 235.952 285.355 235.44V234.512C284.16 234.512 283.094 234.597 282.155 234.768C281.216 234.917 280.47 235.184 279.915 235.568C279.382 235.952 279.115 236.485 279.115 237.168C279.115 237.552 279.211 237.883 279.403 238.16C279.595 238.437 279.872 238.651 280.235 238.8C280.598 238.949 281.035 239.024 281.547 239.024ZM300.109 242.384C298.723 242.384 297.517 242.075 296.493 241.456C295.491 240.816 294.712 239.845 294.157 238.544C293.603 237.243 293.325 235.579 293.325 233.552C293.325 231.525 293.603 229.872 294.157 228.592C294.733 227.291 295.512 226.331 296.493 225.712C297.496 225.093 298.648 224.784 299.949 224.784C300.675 224.784 301.347 224.869 301.965 225.04C302.605 225.189 303.16 225.435 303.629 225.776C304.12 226.117 304.536 226.533 304.877 227.024H305.069V218.864H309.517V242H305.869L305.517 239.728H305.293C304.739 240.624 304.013 241.296 303.117 241.744C302.221 242.171 301.219 242.384 300.109 242.384ZM301.517 238.736C302.349 238.736 303.021 238.544 303.533 238.16C304.067 237.776 304.461 237.221 304.717 236.496C304.973 235.771 305.101 234.907 305.101 233.904V233.328C305.101 232.581 305.027 231.899 304.877 231.28C304.749 230.661 304.536 230.149 304.237 229.744C303.939 229.317 303.565 228.997 303.117 228.784C302.669 228.549 302.136 228.432 301.517 228.432C300.621 228.432 299.907 228.613 299.373 228.976C298.84 229.317 298.456 229.851 298.221 230.576C297.987 231.28 297.869 232.165 297.869 233.232V233.968C297.869 235.035 297.987 235.92 298.221 236.624C298.456 237.328 298.84 237.861 299.373 238.224C299.907 238.565 300.621 238.736 301.517 238.736ZM321.37 242.384C319.535 242.384 317.978 242.075 316.698 241.456C315.418 240.816 314.447 239.845 313.786 238.544C313.125 237.221 312.794 235.568 312.794 233.584C312.794 231.557 313.125 229.904 313.786 228.624C314.447 227.323 315.418 226.363 316.698 225.744C317.978 225.104 319.535 224.784 321.37 224.784C323.247 224.784 324.815 225.104 326.074 225.744C327.354 226.363 328.325 227.323 328.986 228.624C329.647 229.904 329.978 231.557 329.978 233.584C329.978 235.568 329.647 237.221 328.986 238.544C328.325 239.845 327.354 240.816 326.074 241.456C324.815 242.075 323.247 242.384 321.37 242.384ZM321.37 238.928C322.351 238.928 323.13 238.747 323.706 238.384C324.303 238.021 324.741 237.467 325.018 236.72C325.295 235.973 325.434 235.056 325.434 233.968V233.2C325.434 232.112 325.295 231.195 325.018 230.448C324.741 229.701 324.303 229.147 323.706 228.784C323.13 228.4 322.351 228.208 321.37 228.208C320.41 228.208 319.631 228.4 319.034 228.784C318.458 229.147 318.031 229.701 317.754 230.448C317.477 231.195 317.338 232.112 317.338 233.2V233.968C317.338 235.056 317.477 235.973 317.754 236.72C318.031 237.467 318.458 238.021 319.034 238.384C319.631 238.747 320.41 238.928 321.37 238.928Z" fill="#F9F9F9"/>
</g>
<defs>
<filter id="filter0_d_5333_20799" x="0" y="0" width="520" height="344" filterUnits="userSpaceOnUse" color-interpolation-filters="sRGB">
<feFlood flood-opacity="0" result="BackgroundImageFix"/>
<feColorMatrix in="SourceAlpha" type="matrix" values="0 0 0 0 0 0 0 0 0 0 0 0 0 0 0 0 0 0 127 0" result="hardAlpha"/>
<feOffset dx="5" dy="5"/>
<feGaussianBlur stdDeviation="10"/>
<feComposite in2="hardAlpha" operator="out"/>
<feColorMatrix type="matrix" values="0 0 0 0 0 0 0 0 0 0 0 0 0 0 0 0 0 0 0.5 0"/>
<feBlend mode="normal" in2="BackgroundImageFix" result="effect1_dropShadow_5333_20799"/>
<feBlend mode="normal" in="SourceGraphic" in2="effect1_dropShadow_5333_20799" result="shape"/>
</filter>
</defs>
</svg>
