<svg width="17" height="16" viewBox="0 0 17 16" fill="none" xmlns="http://www.w3.org/2000/svg">
<path d="M16.1451 0.367084C15.6718 -0.106181 14.9073 -0.106181 14.434 0.367084L8.5 6.28897L2.56598 0.354949C2.09272 -0.118316 1.32821 -0.118316 0.854949 0.354949C0.381684 0.828214 0.381684 1.59272 0.854949 2.06598L6.78897 8L0.854949 13.934C0.381684 14.4073 0.381684 15.1718 0.854949 15.6451C1.32821 16.1183 2.09272 16.1183 2.56598 15.6451L8.5 9.71104L14.434 15.6451C14.9073 16.1183 15.6718 16.1183 16.1451 15.6451C16.6183 15.1718 16.6183 14.4073 16.1451 13.934L10.211 8L16.1451 2.06598C16.6062 1.60485 16.6062 0.828214 16.1451 0.367084Z" fill="#F9F9F9"/>
</svg>
