<svg width="12" height="12" viewBox="0 0 12 12" fill="none" xmlns="http://www.w3.org/2000/svg">
<path d="M1.9987 10.6667C1.9987 11.4 2.5987 12 3.33203 12H8.66536C9.3987 12 9.9987 11.4 9.9987 10.6667V2.66667H1.9987V10.6667ZM4.11203 6.39333C3.85203 6.13333 3.85203 5.71333 4.11203 5.45333C4.37203 5.19333 4.79203 5.19333 5.05203 5.45333L5.9987 6.39333L6.9387 5.45333C7.1987 5.19333 7.6187 5.19333 7.8787 5.45333C8.1387 5.71333 8.1387 6.13333 7.8787 6.39333L6.9387 7.33333L7.8787 8.27333C8.1387 8.53333 8.1387 8.95333 7.8787 9.21333C7.6187 9.47333 7.1987 9.47333 6.9387 9.21333L5.9987 8.27333L5.0587 9.21333C4.7987 9.47333 4.3787 9.47333 4.1187 9.21333C3.8587 8.95333 3.8587 8.53333 4.1187 8.27333L5.0587 7.33333L4.11203 6.39333ZM9.9987 0.666667H8.33203L7.8587 0.193333C7.7387 0.0733333 7.56536 0 7.39203 0H4.60536C4.43203 0 4.2587 0.0733333 4.1387 0.193333L3.66536 0.666667H1.9987C1.63203 0.666667 1.33203 0.966667 1.33203 1.33333C1.33203 1.7 1.63203 2 1.9987 2H9.9987C10.3654 2 10.6654 1.7 10.6654 1.33333C10.6654 0.966667 10.3654 0.666667 9.9987 0.666667Z" fill="#F9F9F9"/>
</svg>
