<svg width="16" height="16" viewBox="0 0 16 16" fill="none" xmlns="http://www.w3.org/2000/svg">
<path d="M12.9689 0.524444C12.6311 0.186667 12.1778 0 11.7067 0H1.77778C0.791111 0 0 0.8 0 1.77778V14.2222C0 15.2 0.8 16 1.77778 16H14.2222C15.2 16 16 15.2 16 14.2222V4.29333C16 3.82222 15.8133 3.36889 15.4756 3.04L12.9689 0.524444ZM8 14.2222C6.52444 14.2222 5.33333 13.0311 5.33333 11.5556C5.33333 10.08 6.52444 8.88889 8 8.88889C9.47556 8.88889 10.6667 10.08 10.6667 11.5556C10.6667 13.0311 9.47556 14.2222 8 14.2222ZM8.88889 5.33333H3.55556C2.57778 5.33333 1.77778 4.53333 1.77778 3.55556C1.77778 2.57778 2.57778 1.77778 3.55556 1.77778H8.88889C9.86667 1.77778 10.6667 2.57778 10.6667 3.55556C10.6667 4.53333 9.86667 5.33333 8.88889 5.33333Z" fill="#F9F9F9"/>
</svg>
