<svg width="25" height="24" viewBox="0 0 25 24" fill="none" xmlns="http://www.w3.org/2000/svg">
<path d="M18.5 0H6.5C5.18 0 4.1 1.08 4.1 2.4V4.8C4.1 6.12 5.18 7.2 6.5 7.2H18.5C19.82 7.2 20.9 6.12 20.9 4.8V2.4C20.9 1.08 19.82 0 18.5 0ZM17.9 4.8H7.1C6.764 4.8 6.5 4.536 6.5 4.2V3C6.5 2.664 6.764 2.4 7.1 2.4H17.9C18.236 2.4 18.5 2.664 18.5 3V4.2C18.5 4.536 18.236 4.8 17.9 4.8ZM22.1 24H2.9C1.58 24 0.5 22.92 0.5 21.6V20.4H24.5V21.6C24.5 22.92 23.42 24 22.1 24ZM20.336 9.828C19.952 8.964 19.088 8.4 18.14 8.4H6.86C5.912 8.4 5.048 8.964 4.664 9.828L0.5 19.2H24.5L20.336 9.828ZM9.5 16.8H8.3C7.964 16.8 7.7 16.536 7.7 16.2C7.7 15.864 7.964 15.6 8.3 15.6H9.5C9.836 15.6 10.1 15.864 10.1 16.2C10.1 16.536 9.836 16.8 9.5 16.8ZM9.5 14.4H8.3C7.964 14.4 7.7 14.136 7.7 13.8C7.7 13.464 7.964 13.2 8.3 13.2H9.5C9.836 13.2 10.1 13.464 10.1 13.8C10.1 14.136 9.836 14.4 9.5 14.4ZM9.5 12H8.3C7.964 12 7.7 11.736 7.7 11.4C7.7 11.064 7.964 10.8 8.3 10.8H9.5C9.836 10.8 10.1 11.064 10.1 11.4C10.1 11.736 9.836 12 9.5 12ZM13.1 16.8H11.9C11.564 16.8 11.3 16.536 11.3 16.2C11.3 15.864 11.564 15.6 11.9 15.6H13.1C13.436 15.6 13.7 15.864 13.7 16.2C13.7 16.536 13.436 16.8 13.1 16.8ZM13.1 14.4H11.9C11.564 14.4 11.3 14.136 11.3 13.8C11.3 13.464 11.564 13.2 11.9 13.2H13.1C13.436 13.2 13.7 13.464 13.7 13.8C13.7 14.136 13.436 14.4 13.1 14.4ZM13.1 12H11.9C11.564 12 11.3 11.736 11.3 11.4C11.3 11.064 11.564 10.8 11.9 10.8H13.1C13.436 10.8 13.7 11.064 13.7 11.4C13.7 11.736 13.436 12 13.1 12ZM16.7 16.8H15.5C15.164 16.8 14.9 16.536 14.9 16.2C14.9 15.864 15.164 15.6 15.5 15.6H16.7C17.036 15.6 17.3 15.864 17.3 16.2C17.3 16.536 17.036 16.8 16.7 16.8ZM16.7 14.4H15.5C15.164 14.4 14.9 14.136 14.9 13.8C14.9 13.464 15.164 13.2 15.5 13.2H16.7C17.036 13.2 17.3 13.464 17.3 13.8C17.3 14.136 17.036 14.4 16.7 14.4ZM16.7 12H15.5C15.164 12 14.9 11.736 14.9 11.4C14.9 11.064 15.164 10.8 15.5 10.8H16.7C17.036 10.8 17.3 11.064 17.3 11.4C17.3 11.736 17.036 12 16.7 12Z" fill="#F9F9F9"/>
</svg>
