<svg width="96" height="96" viewBox="0 0 96 96" fill="none" xmlns="http://www.w3.org/2000/svg">
<path opacity="0.89" d="M48 24C50.64 24 52.8 26.16 52.8 28.8V48C52.8 50.64 50.64 52.8 48 52.8C45.36 52.8 43.2 50.64 43.2 48V28.8C43.2 26.16 45.36 24 48 24ZM47.952 0C21.456 0 0 21.504 0 48C0 74.496 21.456 96 47.952 96C74.496 96 96 74.496 96 48C96 21.504 74.496 0 47.952 0ZM48 86.4C26.784 86.4 9.6 69.216 9.6 48C9.6 26.784 26.784 9.6 48 9.6C69.216 9.6 86.4 26.784 86.4 48C86.4 69.216 69.216 86.4 48 86.4ZM52.8 72H43.2V62.4H52.8V72Z" fill="#F9F9F9"/>
</svg>
