<svg width="12" height="12" viewBox="0 0 12 12" fill="none" xmlns="http://www.w3.org/2000/svg">
<path d="M6 1.90918C3.27273 1.90918 0.943636 3.60554 0 6.00009C0.943636 8.39463 3.27273 10.091 6 10.091C8.72727 10.091 11.0564 8.39463 12 6.00009C11.0564 3.60554 8.72727 1.90918 6 1.90918ZM6 8.72736C4.49455 8.72736 3.27273 7.50554 3.27273 6.00009C3.27273 4.49463 4.49455 3.27282 6 3.27282C7.50545 3.27282 8.72727 4.49463 8.72727 6.00009C8.72727 7.50554 7.50545 8.72736 6 8.72736ZM6 4.36373C5.09455 4.36373 4.36364 5.09463 4.36364 6.00009C4.36364 6.90554 5.09455 7.63645 6 7.63645C6.90545 7.63645 7.63636 6.90554 7.63636 6.00009C7.63636 5.09463 6.90545 4.36373 6 4.36373Z" fill="#F9F9F9"/>
</svg>
