<svg width="40" height="40" viewBox="0 0 40 40" fill="none" xmlns="http://www.w3.org/2000/svg">
<rect width="40" height="40" rx="20" fill="#C18333"/>
<path d="M20.2658 19.0222C18.248 18.4978 17.5991 17.9556 17.5991 17.1111C17.5991 16.1422 18.4969 15.4667 19.9991 15.4667C21.2614 15.4667 21.8925 15.9467 22.1236 16.7111C22.2302 17.0667 22.5236 17.3333 22.8969 17.3333H23.1636C23.7502 17.3333 24.168 16.7556 23.9636 16.2044C23.5902 15.1556 22.7191 14.2844 21.3325 13.9467V13.3333C21.3325 12.5956 20.7369 12 19.9991 12C19.2614 12 18.6658 12.5956 18.6658 13.3333V13.92C16.9414 14.2933 15.5547 15.4133 15.5547 17.1289C15.5547 19.1822 17.2525 20.2044 19.7325 20.8C21.9547 21.3333 22.3991 22.1156 22.3991 22.9422C22.3991 23.5556 21.9636 24.5333 19.9991 24.5333C18.5325 24.5333 17.7769 24.0089 17.4836 23.2622C17.3502 22.9156 17.048 22.6667 16.6836 22.6667H16.4347C15.8391 22.6667 15.4214 23.2711 15.6436 23.8222C16.1502 25.0578 17.3325 25.7867 18.6658 26.0711V26.6667C18.6658 27.4044 19.2614 28 19.9991 28C20.7369 28 21.3325 27.4044 21.3325 26.6667V26.0889C23.0658 25.76 24.4436 24.7556 24.4436 22.9333C24.4436 20.4089 22.2836 19.5467 20.2658 19.0222Z" fill="#F9F9F9"/>
</svg>
