<svg width="64" height="64" viewBox="0 0 64 64" fill="none" xmlns="http://www.w3.org/2000/svg">
<rect width="64" height="64" rx="32" fill="#F9F9F9" fill-opacity="0.1"/>
<path d="M41.2011 19.952C41.0731 19.952 40.9451 19.92 40.8331 19.856C37.7611 18.272 35.1051 17.6 31.9211 17.6C28.7531 17.6 25.7451 18.352 23.0091 19.856C22.6251 20.064 22.1451 19.92 21.9211 19.536C21.7131 19.152 21.8571 18.656 22.2411 18.448C25.2171 16.832 28.4811 16 31.9211 16C35.3291 16 38.3051 16.752 41.5691 18.432C41.9691 18.64 42.1131 19.12 41.9051 19.504C41.7611 19.792 41.4891 19.952 41.2011 19.952ZM18.3051 28.352C18.1451 28.352 17.9851 28.304 17.8411 28.208C17.4731 27.952 17.3931 27.456 17.6491 27.088C19.2331 24.848 21.2491 23.088 23.6491 21.856C28.6731 19.264 35.1051 19.248 40.1451 21.84C42.5451 23.072 44.5611 24.816 46.1451 27.04C46.4011 27.392 46.3211 27.904 45.9531 28.16C45.5851 28.416 45.0891 28.336 44.8331 27.968C43.3931 25.952 41.5691 24.368 39.4091 23.264C34.8171 20.912 28.9451 20.912 24.3691 23.28C22.1931 24.4 20.3691 26 18.9291 28.016C18.8011 28.24 18.5611 28.352 18.3051 28.352ZM28.3051 47.664C28.0971 47.664 27.8891 47.584 27.7451 47.424C26.3531 46.032 25.6011 45.136 24.5291 43.2C23.4251 41.232 22.8491 38.832 22.8491 36.256C22.8491 31.504 26.9131 27.632 31.9051 27.632C36.8971 27.632 40.9611 31.504 40.9611 36.256C40.9611 36.704 40.6091 37.056 40.1611 37.056C39.7131 37.056 39.3611 36.704 39.3611 36.256C39.3611 32.384 36.0171 29.232 31.9051 29.232C27.7931 29.232 24.4491 32.384 24.4491 36.256C24.4491 38.56 24.9611 40.688 25.9371 42.416C26.9611 44.256 27.6651 45.04 28.8971 46.288C29.2011 46.608 29.2011 47.104 28.8971 47.424C28.7211 47.584 28.5131 47.664 28.3051 47.664ZM39.7771 44.704C37.8731 44.704 36.1931 44.224 34.8171 43.28C32.4331 41.664 31.0091 39.04 31.0091 36.256C31.0091 35.808 31.3611 35.456 31.8091 35.456C32.2571 35.456 32.6091 35.808 32.6091 36.256C32.6091 38.512 33.7611 40.64 35.7131 41.952C36.8491 42.72 38.1771 43.088 39.7771 43.088C40.1611 43.088 40.8011 43.04 41.4411 42.928C41.8731 42.848 42.2891 43.136 42.3691 43.584C42.4491 44.016 42.1611 44.432 41.7131 44.512C40.8011 44.688 40.0011 44.704 39.7771 44.704ZM36.5611 48C36.4971 48 36.4171 47.984 36.3531 47.968C33.8091 47.264 32.1451 46.32 30.4011 44.608C28.1611 42.384 26.9291 39.424 26.9291 36.256C26.9291 33.664 29.1371 31.552 31.8571 31.552C34.5771 31.552 36.7851 33.664 36.7851 36.256C36.7851 37.968 38.2731 39.36 40.1131 39.36C41.9531 39.36 43.4411 37.968 43.4411 36.256C43.4411 30.224 38.2411 25.328 31.8411 25.328C27.2971 25.328 23.1371 27.856 21.2651 31.776C20.6411 33.072 20.3211 34.592 20.3211 36.256C20.3211 37.504 20.4331 39.472 21.3931 42.032C21.5531 42.448 21.3451 42.912 20.9291 43.056C20.5131 43.216 20.0491 42.992 19.9051 42.592C19.1211 40.496 18.7371 38.416 18.7371 36.256C18.7371 34.336 19.1051 32.592 19.8251 31.072C21.9531 26.608 26.6731 23.712 31.8411 23.712C39.1211 23.712 45.0411 29.328 45.0411 36.24C45.0411 38.832 42.8331 40.944 40.1131 40.944C37.3931 40.944 35.1851 38.832 35.1851 36.24C35.1851 34.528 33.6971 33.136 31.8571 33.136C30.0171 33.136 28.5291 34.528 28.5291 36.24C28.5291 38.976 29.5851 41.536 31.5211 43.456C33.0411 44.96 34.4971 45.792 36.7531 46.416C37.1851 46.528 37.4251 46.976 37.3131 47.392C37.2331 47.76 36.8971 48 36.5611 48Z" fill="#F9F9F9" fill-opacity="0.5"/>
</svg>
