<svg width="22" height="24" viewBox="0 0 22 24" fill="none" xmlns="http://www.w3.org/2000/svg">
<path d="M17.9779 2.964C17.8819 2.964 17.7859 2.94 17.7019 2.892C15.3979 1.704 13.4059 1.2 11.0179 1.2C8.64194 1.2 6.38594 1.764 4.33394 2.892C4.04594 3.048 3.68594 2.94 3.51794 2.652C3.36194 2.364 3.46994 1.992 3.75794 1.836C5.98994 0.624 8.43794 0 11.0179 0C13.5739 0 15.8059 0.564 18.2539 1.824C18.5539 1.98 18.6619 2.34 18.5059 2.628C18.3979 2.844 18.1939 2.964 17.9779 2.964ZM0.805939 9.264C0.685939 9.264 0.565939 9.228 0.457939 9.156C0.181939 8.964 0.121939 8.592 0.313939 8.316C1.50194 6.636 3.01394 5.316 4.81394 4.392C8.58194 2.448 13.4059 2.436 17.1859 4.38C18.9859 5.304 20.4979 6.612 21.6859 8.28C21.8779 8.544 21.8179 8.928 21.5419 9.12C21.2659 9.312 20.8939 9.252 20.7019 8.976C19.6219 7.464 18.2539 6.276 16.6339 5.448C13.1899 3.684 8.78594 3.684 5.35394 5.46C3.72194 6.3 2.35394 7.5 1.27394 9.012C1.17794 9.18 0.997939 9.264 0.805939 9.264ZM8.30594 23.748C8.14994 23.748 7.99394 23.688 7.88594 23.568C6.84194 22.524 6.27794 21.852 5.47394 20.4C4.64594 18.924 4.21394 17.124 4.21394 15.192C4.21394 11.628 7.26194 8.724 11.0059 8.724C14.7499 8.724 17.7979 11.628 17.7979 15.192C17.7979 15.528 17.5339 15.792 17.1979 15.792C16.8619 15.792 16.5979 15.528 16.5979 15.192C16.5979 12.288 14.0899 9.924 11.0059 9.924C7.92194 9.924 5.41394 12.288 5.41394 15.192C5.41394 16.92 5.79794 18.516 6.52994 19.812C7.29794 21.192 7.82594 21.78 8.74994 22.716C8.97794 22.956 8.97794 23.328 8.74994 23.568C8.61794 23.688 8.46194 23.748 8.30594 23.748ZM16.9099 21.528C15.4819 21.528 14.2219 21.168 13.1899 20.46C11.4019 19.248 10.3339 17.28 10.3339 15.192C10.3339 14.856 10.5979 14.592 10.9339 14.592C11.2699 14.592 11.5339 14.856 11.5339 15.192C11.5339 16.884 12.3979 18.48 13.8619 19.464C14.7139 20.04 15.7099 20.316 16.9099 20.316C17.1979 20.316 17.6779 20.28 18.1579 20.196C18.4819 20.136 18.7939 20.352 18.8539 20.688C18.9139 21.012 18.6979 21.324 18.3619 21.384C17.6779 21.516 17.0779 21.528 16.9099 21.528ZM14.4979 24C14.4499 24 14.3899 23.988 14.3419 23.976C12.4339 23.448 11.1859 22.74 9.87794 21.456C8.19794 19.788 7.27394 17.568 7.27394 15.192C7.27394 13.248 8.92994 11.664 10.9699 11.664C13.0099 11.664 14.6659 13.248 14.6659 15.192C14.6659 16.476 15.7819 17.52 17.1619 17.52C18.5419 17.52 19.6579 16.476 19.6579 15.192C19.6579 10.668 15.7579 6.996 10.9579 6.996C7.54994 6.996 4.42994 8.892 3.02594 11.832C2.55794 12.804 2.31794 13.944 2.31794 15.192C2.31794 16.128 2.40194 17.604 3.12194 19.524C3.24194 19.836 3.08594 20.184 2.77394 20.292C2.46194 20.412 2.11394 20.244 2.00594 19.944C1.41794 18.372 1.12994 16.812 1.12994 15.192C1.12994 13.752 1.40594 12.444 1.94594 11.304C3.54194 7.956 7.08194 5.784 10.9579 5.784C16.4179 5.784 20.8579 9.996 20.8579 15.18C20.8579 17.124 19.2019 18.708 17.1619 18.708C15.1219 18.708 13.4659 17.124 13.4659 15.18C13.4659 13.896 12.3499 12.852 10.9699 12.852C9.58994 12.852 8.47394 13.896 8.47394 15.18C8.47394 17.232 9.26594 19.152 10.7179 20.592C11.8579 21.72 12.9499 22.344 14.6419 22.812C14.9659 22.896 15.1459 23.232 15.0619 23.544C15.0019 23.82 14.7499 24 14.4979 24Z" fill="#F9F9F9"/>
</svg>
