<svg width="22" height="24" viewBox="0 0 22 24" fill="none" xmlns="http://www.w3.org/2000/svg">
<path d="M15.8002 4.8V12C15.8002 13.32 16.8802 14.4 18.2002 14.4H19.4002V22.8C19.4002 23.46 19.9402 24 20.6002 24C21.2602 24 21.8002 23.46 21.8002 22.8V1.356C21.8002 0.576 21.0682 1.07288e-07 20.3122 0.18C17.7202 0.816 15.8002 3.012 15.8002 4.8ZM9.80019 8.4H7.4002V1.2C7.4002 0.54 6.8602 0 6.20019 0C5.54019 0 5.0002 0.54 5.0002 1.2V8.4H2.6002V1.2C2.6002 0.54 2.0602 0 1.4002 0C0.740195 0 0.200195 0.54 0.200195 1.2V8.4C0.200195 11.052 2.3482 13.2 5.0002 13.2V22.8C5.0002 23.46 5.54019 24 6.20019 24C6.8602 24 7.4002 23.46 7.4002 22.8V13.2C10.0522 13.2 12.2002 11.052 12.2002 8.4V1.2C12.2002 0.54 11.6602 0 11.0002 0C10.3402 0 9.80019 0.54 9.80019 1.2V8.4Z" fill="#F9F9F9"/>
</svg>
