<svg width="269" height="320" viewBox="0 0 269 320" fill="none" xmlns="http://www.w3.org/2000/svg">
<path d="M145.574 317.452C132.128 320.927 116.776 321.655 103.441 314.426C88.9296 306.524 77.6118 290.104 68.5912 268.417C64.221 257.993 60.299 238.042 58.1699 233.055C56.0408 228.123 50.8862 209.294 49.0373 205.035C45.5075 196.965 19.9585 154.262 15.8124 146.248C13.9634 142.661 4.66269 126.073 2.53361 119.853C0.348498 113.352 -1.6125 100.519 4.83078 96.3156C15.196 89.5347 24.6649 112.007 28.2507 120.133C31.3883 127.194 41.4734 143.558 44.7231 147.537C46.8521 150.171 53.5756 157.512 59.0103 164.629C64.333 171.578 66.238 178.92 74.3621 174.156C81.2537 170.065 76.043 161.379 73.3536 150.227C70.3281 137.674 65.1174 124.448 63.8288 117.667C62.0919 108.364 59.4025 85.6679 58.394 80.0078C56.0969 66.9503 46.2358 32.3732 63.7728 31.0842C81.2536 29.7953 78.6763 66.6701 82.1501 77.4859C82.9905 80.1198 87.5849 95.1387 90.4423 102.648C93.2437 110.046 96.1572 116.546 98.3984 123.047C102.657 135.376 104.169 145.127 107.811 144.062C112.91 142.605 107.419 126.858 107.755 113.912C108.147 98.6693 105.346 81.689 104.449 70.5929C104.225 67.6228 103.049 51.1468 102.713 48.3448C102.376 45.5427 100.583 33.6061 99.9672 30.0755C99.4069 27.0493 98.1743 22.0617 98.1743 17.2422C98.0062 9.62067 98.5104 0.598116 106.522 0.0377092C114.142 -0.466657 118.905 4.07264 122.883 14.6083C126.132 23.1825 127.253 34.6148 129.494 44.8142C131.007 51.7633 133.136 58.0959 134.257 63.4197C135.489 69.304 136.554 77.8222 138.011 86.0602C139.131 92.3367 140.756 98.1089 141.204 104.441C142.437 121.142 141.26 134.255 145.406 133.807C152.074 133.022 151.289 124.224 152.074 112.455C152.522 105.843 153.474 98.8374 153.586 91.4961C153.867 77.7661 156.5 64.7647 156.836 59.3287C157.452 47.5042 153.698 39.042 153.53 27.7778C153.362 17.9707 155.996 9.78879 163.447 8.61193C173.925 6.93071 176.838 15.3368 179.64 28.8987C181.096 36.0158 181.377 43.9736 181.601 51.9874C181.769 56.919 182.889 60.5056 183.338 64.8207C184.01 71.3215 184.122 77.9903 184.29 82.3054C184.514 88.1897 184.514 98.6133 184.57 110.214C184.626 120.357 182.833 126.634 184.402 136.665C185.579 144.174 186.643 146.248 186.979 153.981C187.484 165.078 189.893 173.315 198.913 180.489C201.771 182.73 205.749 186.709 208.158 185.252C213.705 181.946 217.963 163.62 222.221 153.869C225.079 147.313 229.281 128.707 238.302 117.611C245.193 109.093 253.429 102.816 262.562 104.946C270.462 106.795 269.79 113.8 267.38 122.991C264.187 135.376 260.153 147.201 256.343 155.831C249.899 170.457 243.008 194.779 240.543 204.53C239.478 208.677 235.444 225.265 228.104 243.254C219.7 263.877 207.598 286.462 200.931 295.82C195.16 303.946 177.679 314.09 166.137 316.051C156.164 317.732 147.759 316.892 145.574 317.452Z" fill="#F9F9F9" fill-opacity="0.2"/>
</svg>
