<svg width="16" height="16" viewBox="0 0 16 16" fill="none" xmlns="http://www.w3.org/2000/svg">
<path d="M14.2014 1.77778H8.80546C8.31084 1.77778 7.90614 1.37778 7.90614 0.888889C7.90614 0.4 8.31084 0 8.80546 0H14.2014C15.1906 0 16 0.8 16 1.77778V14.2222C16 15.2 15.1906 16 14.2014 16H8.80546C8.31084 16 7.90614 15.6 7.90614 15.1111C7.90614 14.6222 8.31084 14.2222 8.80546 14.2222H14.2014V1.77778Z" fill="#F9F9F9"/>
<path d="M0.128423 7.69282L2.63752 5.21282C2.9253 4.92838 3.41093 5.12393 3.41093 5.52393V7.11504H9.70615C10.2008 7.11504 10.6055 7.51504 10.6055 8.00393C10.6055 8.49282 10.2008 8.89282 9.70615 8.89282H3.41093V10.4839C3.41093 10.8839 2.9253 11.0795 2.64651 10.795L0.137416 8.31505C-0.042448 8.14616 -0.042448 7.86171 0.128423 7.69282Z" fill="#F9F9F9"/>
</svg>
