<svg width="57" height="20" viewBox="0 0 57 20" fill="none" xmlns="http://www.w3.org/2000/svg">
<path d="M10.0029 19.2455V15.2781H11.4996C11.764 15.2781 11.9633 15.2903 12.1036 15.3167C12.2988 15.3493 12.4615 15.4103 12.5937 15.5018C12.7259 15.5933 12.8316 15.7214 12.9109 15.8841C12.9902 16.0488 13.0309 16.2298 13.0309 16.425C13.0309 16.7626 12.9231 17.0473 12.7096 17.2811C12.494 17.515 12.1077 17.6309 11.5464 17.6309H10.5296V19.2435H10.005L10.0029 19.2455ZM10.5276 17.1632H11.5525C11.8921 17.1632 12.1321 17.1001 12.2744 16.9741C12.4168 16.848 12.4879 16.669 12.4879 16.4413C12.4879 16.2745 12.4452 16.1342 12.3619 16.0142C12.2785 15.8963 12.1666 15.817 12.0304 15.7804C11.9429 15.758 11.7782 15.7458 11.5403 15.7458H10.5256V17.1632H10.5276Z" fill="black"/>
<path d="M15.5221 19.2456V18.8226C15.2984 19.1479 14.9933 19.3106 14.609 19.3106C14.4402 19.3106 14.2816 19.2781 14.1331 19.213C13.9867 19.1479 13.8769 19.0666 13.8057 18.967C13.7346 18.8693 13.6837 18.7473 13.6553 18.605C13.6349 18.5094 13.6248 18.3569 13.6248 18.1495V16.3681H14.1128V17.9624C14.1128 18.2166 14.123 18.3874 14.1433 18.4769C14.1738 18.605 14.2389 18.7046 14.3385 18.7778C14.4382 18.851 14.5602 18.8876 14.7066 18.8876C14.853 18.8876 14.9893 18.851 15.1174 18.7758C15.2455 18.7006 15.337 18.5989 15.3899 18.4708C15.4428 18.3406 15.4692 18.1535 15.4692 17.9095V16.3701H15.9572V19.2456H15.5221Z" fill="black"/>
<path d="M16.7217 19.2455V16.3701H17.1609V16.7788C17.3724 16.4636 17.6774 16.305 18.076 16.305C18.2489 16.305 18.4075 16.3355 18.5539 16.3986C18.7003 16.4596 18.8081 16.5429 18.8793 16.6426C18.9505 16.7422 19.0013 16.8643 19.0318 17.0025C19.0501 17.092 19.0582 17.2506 19.0582 17.4764V19.2435H18.5702V17.4947C18.5702 17.2954 18.5519 17.1469 18.5132 17.0493C18.4746 16.9517 18.4075 16.8724 18.3119 16.8134C18.2143 16.7544 18.1025 16.726 17.9723 16.726C17.7649 16.726 17.5859 16.791 17.4355 16.9232C17.285 17.0554 17.2097 17.3055 17.2097 17.6736V19.2435H16.7217V19.2455Z" fill="black"/>
<path d="M20.8683 18.8104L20.9394 19.2415C20.8032 19.2699 20.6792 19.2842 20.5714 19.2842C20.3945 19.2842 20.2582 19.2557 20.1606 19.2008C20.063 19.1459 19.9938 19.0707 19.9552 18.9791C19.9166 18.8876 19.8962 18.6965 19.8962 18.4036V16.7504H19.5383V16.3721H19.8962V15.6604L20.3802 15.3676V16.3721H20.8703V16.7504H20.3802V18.4321C20.3802 18.5704 20.3884 18.6599 20.4067 18.7005C20.4229 18.7392 20.4514 18.7717 20.49 18.7961C20.5287 18.8185 20.5836 18.8307 20.6568 18.8307C20.7117 18.8307 20.7829 18.8246 20.8703 18.8124L20.8683 18.8104Z" fill="black"/>
<path d="M21.1631 17.8078C21.1631 17.275 21.3115 16.8805 21.6064 16.6243C21.8545 16.4108 22.1555 16.305 22.5113 16.305C22.9058 16.305 23.2292 16.4352 23.4813 16.6934C23.7315 16.9517 23.8575 17.3096 23.8575 17.7671C23.8575 18.1373 23.8026 18.4281 23.6908 18.6395C23.581 18.851 23.4183 19.0157 23.2068 19.1337C22.9953 19.2516 22.7635 19.3106 22.5134 19.3106C22.1107 19.3106 21.7854 19.1825 21.5373 18.9242C21.2892 18.666 21.1651 18.2938 21.1651 17.8099L21.1631 17.8078ZM21.6633 17.8078C21.6633 18.1759 21.7426 18.4525 21.9033 18.6355C22.0639 18.8185 22.2653 18.91 22.5093 18.91C22.7533 18.91 22.9526 18.8185 23.1133 18.6334C23.2739 18.4484 23.3532 18.1698 23.3532 17.7916C23.3532 17.4357 23.2719 17.1672 23.1112 16.9842C22.9485 16.8012 22.7493 16.7097 22.5093 16.7097C22.2693 16.7097 22.0639 16.8012 21.9033 16.9822C21.7426 17.1632 21.6633 17.4397 21.6633 17.8078Z" fill="black"/>
<path d="M27.8332 19.2455V18.8836C27.6502 19.1683 27.3838 19.3106 27.0299 19.3106C26.8001 19.3106 26.5907 19.2476 26.3975 19.1215C26.2063 18.9954 26.0559 18.8185 25.9501 18.5928C25.8444 18.367 25.7915 18.1067 25.7915 17.8119C25.7915 17.517 25.8383 17.2649 25.9359 17.031C26.0315 16.7971 26.1758 16.6182 26.367 16.4941C26.5582 16.3701 26.7717 16.3071 27.0076 16.3071C27.1804 16.3071 27.335 16.3437 27.4712 16.4169C27.6075 16.4901 27.7173 16.5857 27.8007 16.7016V15.2781H28.2846V19.2455H27.8332ZM26.2938 17.8119C26.2938 18.18 26.3711 18.4545 26.5256 18.6375C26.6802 18.8205 26.8632 18.91 27.0747 18.91C27.2862 18.91 27.4692 18.8226 27.6176 18.6477C27.7661 18.4728 27.8413 18.2084 27.8413 17.8505C27.8413 17.458 27.7661 17.1693 27.6136 16.9842C27.461 16.7992 27.276 16.7077 27.0523 16.7077C26.8286 16.7077 26.6558 16.7951 26.5093 16.972C26.365 17.1489 26.2918 17.4275 26.2918 17.8078L26.2938 17.8119Z" fill="black"/>
<path d="M31.0176 18.3203L31.522 18.3833C31.4426 18.6782 31.2962 18.9059 31.0807 19.0686C30.8651 19.2313 30.5926 19.3127 30.2571 19.3127C29.8361 19.3127 29.5026 19.1825 29.2566 18.9243C29.0105 18.666 28.8865 18.302 28.8865 17.8343C28.8865 17.3665 29.0105 16.9761 29.2606 16.7077C29.5108 16.4392 29.8321 16.3071 30.2307 16.3071C30.6292 16.3071 30.9282 16.4372 31.1722 16.6995C31.4162 16.9619 31.5382 17.3299 31.5382 17.8038C31.5382 17.8322 31.5382 17.8749 31.5362 17.9339H29.3928C29.4111 18.2491 29.5006 18.4911 29.6613 18.6599C29.8219 18.8287 30.0232 18.912 30.2612 18.912C30.4401 18.912 30.5926 18.8653 30.7187 18.7717C30.8448 18.6782 30.9444 18.5277 31.0197 18.3223L31.0176 18.3203ZM29.4172 17.5333H31.0217C30.9993 17.2913 30.9383 17.1103 30.8367 16.9883C30.6821 16.8012 30.4808 16.7077 30.2327 16.7077C30.009 16.7077 29.8199 16.7829 29.6694 16.9314C29.5169 17.0819 29.4315 17.2811 29.4152 17.5313L29.4172 17.5333Z" fill="black"/>
<path d="M34.4727 19.2455L33.3787 16.3701H33.8932L34.5093 18.0925C34.5764 18.2776 34.6374 18.4707 34.6944 18.6721C34.7371 18.5196 34.7981 18.3386 34.8754 18.125L35.5139 16.3701H36.0141L34.9262 19.2455H34.4707H34.4727Z" fill="black"/>
<path d="M38.4136 18.3203L38.918 18.3833C38.8386 18.6782 38.6922 18.9059 38.4767 19.0686C38.2611 19.2313 37.9886 19.3127 37.6531 19.3127C37.2321 19.3127 36.8986 19.1825 36.6526 18.9243C36.4065 18.666 36.2825 18.302 36.2825 17.8343C36.2825 17.3665 36.4065 16.9761 36.6566 16.7077C36.9047 16.4413 37.2281 16.3071 37.6267 16.3071C38.0252 16.3071 38.3242 16.4372 38.5682 16.6995C38.8122 16.9619 38.9342 17.3299 38.9342 17.8038C38.9342 17.8322 38.9342 17.8749 38.9322 17.9339H36.7888C36.8071 18.2491 36.8966 18.4911 37.0573 18.6599C37.2179 18.8287 37.4192 18.912 37.6572 18.912C37.8361 18.912 37.9886 18.8653 38.1147 18.7717C38.2408 18.6782 38.3404 18.5277 38.4157 18.3223L38.4136 18.3203ZM36.8132 17.5333H38.4177C38.3953 17.2913 38.3343 17.1103 38.2326 16.9883C38.0781 16.8012 37.8768 16.7077 37.6287 16.7077C37.405 16.7077 37.2159 16.7829 37.0654 16.9314C36.9129 17.0819 36.8275 17.2811 36.8112 17.5313L36.8132 17.5333Z" fill="black"/>
<path d="M39.5281 19.2455V16.3701H39.9673V16.7788C40.1788 16.4636 40.4838 16.305 40.8824 16.305C41.0553 16.305 41.2139 16.3355 41.3603 16.3986C41.5067 16.4596 41.6145 16.5429 41.6857 16.6426C41.7569 16.7422 41.8077 16.8643 41.8382 17.0025C41.8565 17.092 41.8646 17.2506 41.8646 17.4764V19.2435H41.3766V17.4947C41.3766 17.2954 41.3583 17.1469 41.3196 17.0493C41.281 16.9517 41.2139 16.8724 41.1183 16.8134C41.0207 16.7544 40.9089 16.726 40.7787 16.726C40.5713 16.726 40.3923 16.791 40.2419 16.9232C40.0914 17.0554 40.0161 17.3055 40.0161 17.6736V19.2435H39.5281V19.2455Z" fill="black"/>
<path d="M43.6744 18.8104L43.7456 19.2415C43.6094 19.2699 43.4853 19.2842 43.3775 19.2842C43.2006 19.2842 43.0644 19.2557 42.9667 19.2008C42.8691 19.1459 42.8 19.0707 42.7614 18.9791C42.7227 18.8876 42.7024 18.6965 42.7024 18.4036V16.7504H42.3445V16.3721H42.7024V15.6604L43.1864 15.3676V16.3721H43.6765V16.7504H43.1864V18.4321C43.1864 18.5704 43.1945 18.6599 43.2128 18.7005C43.2291 18.7392 43.2575 18.7717 43.2962 18.7961C43.3348 18.8185 43.3897 18.8307 43.4629 18.8307C43.5178 18.8307 43.589 18.8246 43.6765 18.8124L43.6744 18.8104Z" fill="black"/>
<path d="M46.0274 18.8917C45.8465 19.0442 45.6736 19.154 45.5069 19.2171C45.3401 19.2801 45.1612 19.3126 44.97 19.3126C44.6548 19.3126 44.4108 19.2354 44.242 19.0808C44.0732 18.9263 43.9878 18.729 43.9878 18.489C43.9878 18.3487 44.0203 18.2206 44.0834 18.1027C44.1484 17.9868 44.2318 17.8932 44.3355 17.822C44.4392 17.7509 44.5552 17.698 44.6853 17.6614C44.7809 17.637 44.9253 17.6126 45.1184 17.5882C45.5109 17.5414 45.8017 17.4845 45.9868 17.4194C45.9868 17.3523 45.9888 17.3096 45.9888 17.2913C45.9888 17.092 45.942 16.9537 45.8505 16.8724C45.7265 16.7626 45.5414 16.7077 45.2954 16.7077C45.0656 16.7077 44.8968 16.7483 44.787 16.8276C44.6772 16.909 44.5979 17.0493 44.545 17.2547L44.0691 17.1896C44.1118 16.9863 44.183 16.8215 44.2827 16.6955C44.3823 16.5694 44.5247 16.4738 44.7138 16.4047C44.9009 16.3375 45.1184 16.303 45.3665 16.303C45.6146 16.303 45.8119 16.3314 45.9644 16.3904C46.1169 16.4494 46.2308 16.5206 46.302 16.608C46.3732 16.6955 46.424 16.8053 46.4545 16.9395C46.4708 17.0229 46.4789 17.1713 46.4789 17.3889V18.0376C46.4789 18.4911 46.4891 18.7778 46.5094 18.8978C46.5297 19.0178 46.5704 19.1337 46.6334 19.2435H46.1251C46.0742 19.1418 46.0417 19.0239 46.0274 18.8897V18.8917ZM45.9868 17.8037C45.8099 17.8749 45.5455 17.938 45.1917 17.9888C44.9924 18.0173 44.85 18.0498 44.7666 18.0864C44.6833 18.123 44.6202 18.1759 44.5735 18.245C44.5287 18.3142 44.5063 18.3914 44.5063 18.4768C44.5063 18.607 44.5552 18.7148 44.6548 18.8022C44.7524 18.8897 44.8968 18.9324 45.0859 18.9324C45.275 18.9324 45.4397 18.8917 45.5862 18.8083C45.7326 18.727 45.8404 18.6131 45.9075 18.4707C45.9603 18.3609 45.9868 18.1983 45.9868 17.9827V17.8037Z" fill="black"/>
<path d="M7.39197 5.63295H5.4479V10.001C5.4479 10.7616 5.89324 10.9263 6.57855 10.9263C6.83681 10.9263 7.11541 10.8897 7.39197 10.8897V13.2039C6.81648 13.2222 6.24505 13.2954 5.66955 13.2954C2.98526 13.2954 2.29996 12.5186 2.29996 9.90748V5.63092H0.709717V3.5933H2.30199V1.87088L5.44993 0.687347V3.5933H7.39401V5.63092L7.39197 5.63295Z" fill="black"/>
<path d="M50.9 3.31674C49.1389 3.31674 47.5629 4.13423 46.6234 5.45808V3.59331H44.6793V0.689392L41.5314 1.87292V3.59534H39.9391V4.4901C39.1155 3.5445 37.6392 3.31878 36.1262 3.31878C35.0342 3.31878 33.9239 3.50383 33.0718 3.98578C32.2197 4.484 31.628 5.29946 31.5731 6.55823H34.5156C34.6641 5.74481 35.2192 5.35436 36.0896 5.35436C36.7383 5.35436 37.6087 5.63296 37.6087 6.35284C37.6087 6.9446 37.3118 7.13169 36.7749 7.2415C34.9508 7.61364 32.2767 7.5079 31.4429 9.28319V7.46316C31.4429 5.63093 31.1094 3.31674 28.0571 3.31674C26.7617 3.31674 25.814 3.8536 25.0555 4.87241C24.537 3.70515 23.4633 3.31674 22.2614 3.31674C21.0596 3.31674 20.0774 3.94715 19.5039 4.90902H19.4653V3.59331H16.4109V13.2018H19.5588V8.51857C19.5588 6.55619 20.0408 5.90749 21.1714 5.90749C22.0215 5.90749 22.355 6.6111 22.355 7.74176V13.2018H25.5029V8.50027C25.5029 6.9446 25.6331 5.90749 26.9833 5.90749C27.8008 5.90749 28.297 6.51959 28.297 7.5567V13.2018H31.445V11.8719C31.9391 12.9619 33.0921 13.4804 34.4627 13.4804C35.6097 13.4804 36.8135 13.1469 37.627 12.2969C37.6636 12.6101 37.7022 12.907 37.812 13.2039H40.9762C40.6081 12.4454 40.6081 11.5567 40.6081 10.7412V6.53993C40.6081 6.20439 40.5736 5.90342 40.5105 5.63296H41.5314V9.90952C41.5314 12.5206 42.2167 13.2974 44.901 13.2974C45.4765 13.2974 46.0479 13.2242 46.6234 13.2059V11.4998C47.5324 12.7789 49.0637 13.4825 50.9732 13.4825C53.1206 13.4825 55.1765 12.5206 55.75 10.3H52.8054C52.5085 11.0036 51.7683 11.3554 51.0098 11.3554C49.6758 11.3554 48.9172 10.485 48.8623 9.17134H55.9167C56.0632 5.91156 54.3428 3.32081 50.8979 3.32081L50.9 3.31674ZM35.6463 11.5384C34.9427 11.5384 34.3326 11.2232 34.3326 10.4443C34.3326 9.6655 34.9244 9.39097 35.628 9.22218C36.3133 9.03713 37.1287 8.98222 37.572 8.70363C37.6453 10.6843 37.147 11.5364 35.6463 11.5364V11.5384ZM45.81 10.9263C45.1247 10.9263 44.6814 10.7616 44.6814 10.001V5.63296H46.5136C46.0113 6.40775 45.7164 7.33708 45.7164 8.37216C45.7164 9.3442 45.9137 10.1922 46.2696 10.906C46.113 10.9161 45.9584 10.9263 45.81 10.9263ZM48.8644 7.41029C49.0494 6.24303 49.7896 5.44791 50.902 5.44791C51.9554 5.44791 52.7159 6.3386 52.7729 7.41029H48.8664H48.8644Z" fill="black"/>
<path d="M17.2364 8.23183C17.2364 5.22217 14.7962 2.78394 11.7865 2.78394C8.77685 2.78394 6.33862 5.2242 6.33862 8.23183C6.33862 11.2395 8.77889 13.6797 11.7865 13.6797C14.7941 13.6797 17.2364 11.2395 17.2364 8.23183Z" fill="black"/>
<path d="M12.1506 6.96288C12.1506 6.96288 10.9956 6.35688 10.7373 5.96237C11.3047 6.19827 12.1161 6.28571 12.4496 6.1637C12.781 6.04168 12.5756 4.78291 12.2808 4.51245C12.6387 4.59989 13.2528 5.61057 13.3118 5.93187C13.6087 5.64921 14.1374 5.42755 14.9285 5.23233C13.9768 5.98271 13.7185 6.41179 13.7673 6.64565C14.3591 6.70869 15.2681 7.4245 15.2681 7.70716C14.5929 7.13777 13.6921 7.32282 13.5192 7.44484C13.6046 7.98779 13.5029 8.93543 13.4297 9.12048C13.1593 8.45551 13.0006 7.96136 12.7058 7.62786C12.474 7.36756 11.6077 8.35383 11.5446 8.52669C11.4735 8.30503 11.807 7.26995 12.1527 6.96288H12.1506Z" fill="white"/>
</svg>
