<svg width="158" height="38" viewBox="0 0 158 38" fill="none" xmlns="http://www.w3.org/2000/svg">
<path d="M19.515 14.7273H13.9852V27.1578C13.9852 29.3191 15.2502 29.7904 17.1999 29.7904C17.9374 29.7904 18.7245 29.6878 19.515 29.6878V36.271C17.8795 36.3256 16.2507 36.5339 14.6152 36.5339C6.97868 36.5339 5.02738 34.3214 5.02738 26.8948V14.7273H0.498047V8.93131H5.02738V4.03321L13.9852 0.663086V8.93131H19.515V14.7273Z" fill="#F9F9F9"/>
<path d="M143.305 8.14252C138.293 8.14252 133.813 10.4675 131.138 14.2362V8.93131H125.608V0.663086L116.65 4.03321V8.93131H112.119V11.4746C109.776 8.78248 105.574 8.14252 101.273 8.14252C98.1639 8.14252 95.0038 8.67168 92.5828 10.0426C90.1602 11.4614 88.4752 13.7781 88.3164 17.3599H96.6905C97.1122 15.0465 98.693 13.9369 101.167 13.9369C103.011 13.9369 105.488 14.7273 105.488 16.7795C105.488 18.4646 104.645 18.9954 103.117 19.3096C97.9258 20.3663 90.3173 20.0669 87.946 25.1205V19.9413C87.946 14.7273 86.9985 8.14252 78.3135 8.14252C74.6259 8.14252 71.9321 9.67214 69.7741 12.5677C68.2991 9.24881 65.2464 8.14252 61.8234 8.14252C58.4003 8.14252 55.6073 9.93672 53.9785 12.6752H53.8661V8.93296H45.1729V36.2727H54.1323V22.9459C54.1323 17.3616 55.5015 15.5178 58.7178 15.5178C61.1388 15.5178 62.0863 17.5187 62.0863 20.735V36.2727H71.0408V22.893C71.0408 18.4679 71.4112 15.5178 75.251 15.5178C77.5744 15.5178 78.9915 17.2574 78.9915 20.2092V36.2727H87.946V32.4875C89.3533 35.5881 92.6324 37.0614 96.5334 37.0614C99.7993 37.0614 103.224 36.1139 105.537 33.693C105.643 34.5859 105.749 35.4277 106.067 36.2727H115.071C114.024 34.113 114.024 31.5846 114.024 29.2678V17.3136C114.024 16.3595 113.926 15.5029 113.748 14.7306H116.652V26.8982C116.652 34.3247 118.603 36.5372 126.239 36.5372C127.875 36.5372 129.505 36.3305 131.139 36.2743V31.4192C133.724 35.0572 138.084 37.0631 143.515 37.0631C149.627 37.0631 155.476 34.3247 157.108 28.0061H148.731C147.886 30.007 145.781 31.0091 143.623 31.0091C139.827 31.0091 137.671 28.5353 137.511 24.7964H157.584C158.001 15.5211 153.106 8.14913 143.307 8.14913V8.14252H143.305ZM99.9035 31.5333C97.9026 31.5333 96.1663 30.6337 96.1663 28.4212C96.1663 26.2086 97.8497 25.4231 99.8522 24.9452C101.802 24.4193 104.124 24.2622 105.384 23.4718C105.592 29.1091 104.173 31.5333 99.9035 31.5333ZM128.819 29.7904C126.869 29.7904 125.609 29.3191 125.609 27.1578V14.7273H130.822C129.395 16.93 128.553 19.5742 128.553 22.521C128.553 25.2875 129.113 27.7002 130.127 29.7325C129.681 29.7606 129.241 29.792 128.819 29.792V29.7904ZM137.509 19.7842C138.037 16.4653 140.143 14.1982 143.305 14.1982C146.303 14.1982 148.466 16.7299 148.626 19.7842H137.509Z" fill="#F9F9F9"/>
<path d="M46.8398 22.1253C46.8398 13.5644 39.8978 6.62402 31.3336 6.62402C22.7694 6.62402 15.834 13.5644 15.834 22.1253C15.834 30.6862 22.776 37.6265 31.3336 37.6265C39.8912 37.6265 46.8398 30.6845 46.8398 22.1253Z" fill="#FB523D"/>
<path d="M32.369 18.5141C32.369 18.5141 29.0799 16.7894 28.3457 15.6666C29.958 16.3363 32.2698 16.586 33.2173 16.2387C34.1632 15.8898 33.5762 12.313 32.7345 11.5391C33.7515 11.7888 35.4977 14.6644 35.6697 15.5773C36.5147 14.7736 38.0212 14.1436 40.2668 13.5879C37.5598 15.7211 36.8256 16.9465 36.9628 17.6112C38.6446 17.7915 41.2342 19.8271 41.2342 20.6341C39.311 19.0168 36.7479 19.5377 36.2567 19.8883C36.4982 21.4312 36.2121 24.1283 36.0021 24.6541C35.2348 22.7607 34.7817 21.3551 33.9416 20.4076C33.2835 19.6651 30.8179 22.4713 30.6377 22.9624C30.4326 22.3307 31.3834 19.3873 32.3657 18.5141H32.369Z" fill="#F9F9F9"/>
</svg>
