<svg width="33" height="32" viewBox="0 0 33 32" fill="none" xmlns="http://www.w3.org/2000/svg">
<path d="M24.5 0H8.5C6.74 0 5.3 1.44 5.3 3.2V6.4C5.3 8.16 6.74 9.6 8.5 9.6H24.5C26.26 9.6 27.7 8.16 27.7 6.4V3.2C27.7 1.44 26.26 0 24.5 0ZM23.7 6.4H9.3C8.852 6.4 8.5 6.048 8.5 5.6V4C8.5 3.552 8.852 3.2 9.3 3.2H23.7C24.148 3.2 24.5 3.552 24.5 4V5.6C24.5 6.048 24.148 6.4 23.7 6.4ZM29.3 32H3.7C1.94 32 0.5 30.56 0.5 28.8V27.2H32.5V28.8C32.5 30.56 31.06 32 29.3 32ZM26.948 13.104C26.436 11.952 25.284 11.2 24.02 11.2H8.98C7.716 11.2 6.564 11.952 6.052 13.104L0.5 25.6H32.5L26.948 13.104ZM12.5 22.4H10.9C10.452 22.4 10.1 22.048 10.1 21.6C10.1 21.152 10.452 20.8 10.9 20.8H12.5C12.948 20.8 13.3 21.152 13.3 21.6C13.3 22.048 12.948 22.4 12.5 22.4ZM12.5 19.2H10.9C10.452 19.2 10.1 18.848 10.1 18.4C10.1 17.952 10.452 17.6 10.9 17.6H12.5C12.948 17.6 13.3 17.952 13.3 18.4C13.3 18.848 12.948 19.2 12.5 19.2ZM12.5 16H10.9C10.452 16 10.1 15.648 10.1 15.2C10.1 14.752 10.452 14.4 10.9 14.4H12.5C12.948 14.4 13.3 14.752 13.3 15.2C13.3 15.648 12.948 16 12.5 16ZM17.3 22.4H15.7C15.252 22.4 14.9 22.048 14.9 21.6C14.9 21.152 15.252 20.8 15.7 20.8H17.3C17.748 20.8 18.1 21.152 18.1 21.6C18.1 22.048 17.748 22.4 17.3 22.4ZM17.3 19.2H15.7C15.252 19.2 14.9 18.848 14.9 18.4C14.9 17.952 15.252 17.6 15.7 17.6H17.3C17.748 17.6 18.1 17.952 18.1 18.4C18.1 18.848 17.748 19.2 17.3 19.2ZM17.3 16H15.7C15.252 16 14.9 15.648 14.9 15.2C14.9 14.752 15.252 14.4 15.7 14.4H17.3C17.748 14.4 18.1 14.752 18.1 15.2C18.1 15.648 17.748 16 17.3 16ZM22.1 22.4H20.5C20.052 22.4 19.7 22.048 19.7 21.6C19.7 21.152 20.052 20.8 20.5 20.8H22.1C22.548 20.8 22.9 21.152 22.9 21.6C22.9 22.048 22.548 22.4 22.1 22.4ZM22.1 19.2H20.5C20.052 19.2 19.7 18.848 19.7 18.4C19.7 17.952 20.052 17.6 20.5 17.6H22.1C22.548 17.6 22.9 17.952 22.9 18.4C22.9 18.848 22.548 19.2 22.1 19.2ZM22.1 16H20.5C20.052 16 19.7 15.648 19.7 15.2C19.7 14.752 20.052 14.4 20.5 14.4H22.1C22.548 14.4 22.9 14.752 22.9 15.2C22.9 15.648 22.548 16 22.1 16Z" fill="#F9F9F9"/>
</svg>
