<svg width="33" height="32" viewBox="0 0 33 32" fill="none" xmlns="http://www.w3.org/2000/svg">
<path d="M32.4757 12.3249L30.2391 4.33705C29.9196 3.69802 29.2806 3.21875 28.6415 3.21875H4.35846C3.71943 3.21875 3.08041 3.69802 2.92065 4.33705L0.524293 12.3249C0.364536 13.4432 1.00356 14.4017 2.12186 14.4017H5.63652L3.87919 27.0226C3.71943 27.9811 4.51822 28.7799 5.47676 28.7799C6.27555 28.7799 6.91458 28.1409 7.07433 27.3421L8.03288 20.792H25.1269L25.9257 27.3421C26.0854 28.1409 26.7244 28.7799 27.5232 28.7799C28.4818 28.7799 29.2806 27.9811 29.1208 27.0226L27.5232 14.4017H30.8781C31.9964 14.4017 32.6355 13.4432 32.4757 12.3249ZM8.03288 20.792L8.83166 14.4017H24.1683L24.9671 20.792" fill="#F9F9F9"/>
</svg>
