<svg width="33" height="32" viewBox="0 0 33 32" fill="none" xmlns="http://www.w3.org/2000/svg">
<path d="M32.2594 8.94669L27.5083 4.19555C26.9633 3.65062 26.0438 4.02526 26.0438 4.79157V7.83979H2.20292C1.26631 7.83979 0.5 8.60611 0.5 9.54271C0.5 10.4793 1.26631 11.2456 2.20292 11.2456H26.0438V14.2939C26.0438 15.0602 26.9633 15.4348 27.4912 14.8899L32.2424 10.1387C32.583 9.81518 32.583 9.27025 32.2594 8.94669Z" fill="#F9F9F9"/>
<path d="M30.7971 20.7539H6.95623V17.7056C6.95623 16.9393 6.03665 16.5647 5.50875 17.1096L0.757607 21.8608C0.417024 22.1843 0.417024 22.7292 0.740578 23.0528L5.49172 27.8039C6.03665 28.3489 6.95623 27.9742 6.95623 27.2079V24.1597H30.7971C31.7337 24.1597 32.5 23.3934 32.5 22.4568C32.5 21.5202 31.7337 20.7539 30.7971 20.7539Z" fill="#F9F9F9"/>
</svg>
