<svg width="33" height="32" viewBox="0 0 33 32" fill="none" xmlns="http://www.w3.org/2000/svg">
<path fill-rule="evenodd" clip-rule="evenodd" d="M12.1364 17.4531C8.25273 17.4531 0.5 19.4022 0.5 23.2713V26.1804C0.5 26.9804 1.15455 27.6349 1.95455 27.6349H22.3182C23.1182 27.6349 23.7727 26.9804 23.7727 26.1804V23.2713C23.7727 19.4022 16.02 17.4531 12.1364 17.4531Z" fill="#F9F9F9"/>
<path fill-rule="evenodd" clip-rule="evenodd" d="M23.2891 17.6445C25.2818 18.9973 26.6782 20.83 26.6782 23.2736V27.6373H31.0418C31.8418 27.6373 32.4963 26.9827 32.4963 26.1827V23.2736C32.4963 20.1027 27.3036 18.2263 23.2891 17.6445Z" fill="#F9F9F9"/>
<path d="M12.1385 15.9996C15.3518 15.9996 17.9567 13.3948 17.9567 10.1815C17.9567 6.96817 15.3518 4.36328 12.1385 4.36328C8.9252 4.36328 6.32031 6.96817 6.32031 10.1815C6.32031 13.3948 8.9252 15.9996 12.1385 15.9996Z" fill="#F9F9F9"/>
<path fill-rule="evenodd" clip-rule="evenodd" d="M20.8642 15.9996C24.0788 15.9996 26.6824 13.396 26.6824 10.1815C26.6824 6.96692 24.0788 4.36328 20.8642 4.36328C20.1806 4.36328 19.5406 4.50874 18.9297 4.71237C20.137 6.21055 20.8642 8.11601 20.8642 10.1815C20.8642 12.2469 20.137 14.1524 18.9297 15.6506C19.5406 15.8542 20.1806 15.9996 20.8642 15.9996Z" fill="#F9F9F9"/>
</svg>
