<svg width="33" height="32" viewBox="0 0 33 32" fill="none" xmlns="http://www.w3.org/2000/svg">
<path d="M16.5032 0.0078125C15.5256 0.0078125 14.7258 0.807653 14.7258 1.78524V16.0046C14.7258 16.9822 15.5256 17.782 16.5032 17.782C17.4808 17.782 18.2806 16.9822 18.2806 16.0046V1.78524C18.2806 0.807653 17.4808 0.0078125 16.5032 0.0078125ZM25.6391 5.09124C24.9459 5.78444 24.9637 6.86867 25.6214 7.56186C27.6299 9.69477 28.8741 12.5386 28.9452 15.6847C29.1051 22.4922 23.4707 28.3577 16.6632 28.4288C9.71344 28.5355 4.06123 22.9366 4.06123 16.0046C4.06123 12.7342 5.3232 9.76586 7.38501 7.54409C8.04266 6.85089 8.04266 5.76666 7.36724 5.09124C6.65627 4.38027 5.50094 4.39805 4.82552 5.12679C2.24826 7.86402 0.630805 11.5077 0.506386 15.5425C0.257546 24.2163 7.31391 31.717 15.9877 31.9837C25.0526 32.268 32.5 24.9984 32.5 15.9868C32.5 11.7744 30.8648 7.97067 28.1986 5.12679C27.5232 4.39805 26.3501 4.38027 25.6391 5.09124Z" fill="#F9F9F9"/>
</svg>
