<svg width="33" height="32" viewBox="0 0 33 32" fill="none" xmlns="http://www.w3.org/2000/svg">
<path d="M25.8026 3.952C25.6746 3.952 25.5466 3.92 25.4346 3.856C22.3626 2.272 19.7066 1.6 16.5226 1.6C13.3546 1.6 10.3466 2.352 7.61062 3.856C7.22662 4.064 6.74662 3.92 6.52262 3.536C6.31462 3.152 6.45862 2.656 6.84262 2.448C9.81862 0.832 13.0826 0 16.5226 0C19.9306 0 22.9066 0.752 26.1706 2.432C26.5706 2.64 26.7146 3.12 26.5066 3.504C26.3626 3.792 26.0906 3.952 25.8026 3.952ZM2.90662 12.352C2.74662 12.352 2.58662 12.304 2.44262 12.208C2.07462 11.952 1.99462 11.456 2.25062 11.088C3.83462 8.848 5.85062 7.088 8.25062 5.856C13.2746 3.264 19.7066 3.248 24.7466 5.84C27.1466 7.072 29.1626 8.816 30.7466 11.04C31.0026 11.392 30.9226 11.904 30.5546 12.16C30.1866 12.416 29.6906 12.336 29.4346 11.968C27.9946 9.952 26.1706 8.368 24.0106 7.264C19.4186 4.912 13.5466 4.912 8.97062 7.28C6.79462 8.4 4.97062 10 3.53062 12.016C3.40262 12.24 3.16262 12.352 2.90662 12.352ZM12.9066 31.664C12.6986 31.664 12.4906 31.584 12.3466 31.424C10.9546 30.032 10.2026 29.136 9.13062 27.2C8.02662 25.232 7.45062 22.832 7.45062 20.256C7.45062 15.504 11.5146 11.632 16.5066 11.632C21.4986 11.632 25.5626 15.504 25.5626 20.256C25.5626 20.704 25.2106 21.056 24.7626 21.056C24.3146 21.056 23.9626 20.704 23.9626 20.256C23.9626 16.384 20.6186 13.232 16.5066 13.232C12.3946 13.232 9.05062 16.384 9.05062 20.256C9.05062 22.56 9.56262 24.688 10.5386 26.416C11.5626 28.256 12.2666 29.04 13.4986 30.288C13.8026 30.608 13.8026 31.104 13.4986 31.424C13.3226 31.584 13.1146 31.664 12.9066 31.664ZM24.3786 28.704C22.4746 28.704 20.7946 28.224 19.4186 27.28C17.0346 25.664 15.6106 23.04 15.6106 20.256C15.6106 19.808 15.9626 19.456 16.4106 19.456C16.8586 19.456 17.2106 19.808 17.2106 20.256C17.2106 22.512 18.3626 24.64 20.3146 25.952C21.4506 26.72 22.7786 27.088 24.3786 27.088C24.7626 27.088 25.4026 27.04 26.0426 26.928C26.4746 26.848 26.8906 27.136 26.9706 27.584C27.0506 28.016 26.7626 28.432 26.3146 28.512C25.4026 28.688 24.6026 28.704 24.3786 28.704ZM21.1626 32C21.0986 32 21.0186 31.984 20.9546 31.968C18.4106 31.264 16.7466 30.32 15.0026 28.608C12.7626 26.384 11.5306 23.424 11.5306 20.256C11.5306 17.664 13.7386 15.552 16.4586 15.552C19.1786 15.552 21.3866 17.664 21.3866 20.256C21.3866 21.968 22.8746 23.36 24.7146 23.36C26.5546 23.36 28.0426 21.968 28.0426 20.256C28.0426 14.224 22.8426 9.328 16.4426 9.328C11.8986 9.328 7.73862 11.856 5.86662 15.776C5.24262 17.072 4.92262 18.592 4.92262 20.256C4.92262 21.504 5.03462 23.472 5.99462 26.032C6.15462 26.448 5.94662 26.912 5.53062 27.056C5.11462 27.216 4.65062 26.992 4.50662 26.592C3.72262 24.496 3.33862 22.416 3.33862 20.256C3.33862 18.336 3.70662 16.592 4.42662 15.072C6.55462 10.608 11.2746 7.712 16.4426 7.712C23.7226 7.712 29.6426 13.328 29.6426 20.24C29.6426 22.832 27.4346 24.944 24.7146 24.944C21.9946 24.944 19.7866 22.832 19.7866 20.24C19.7866 18.528 18.2986 17.136 16.4586 17.136C14.6186 17.136 13.1306 18.528 13.1306 20.24C13.1306 22.976 14.1866 25.536 16.1226 27.456C17.6426 28.96 19.0986 29.792 21.3546 30.416C21.7866 30.528 22.0266 30.976 21.9146 31.392C21.8346 31.76 21.4986 32 21.1626 32Z" fill="#F9F9F9"/>
</svg>
