<svg width="33" height="32" viewBox="0 0 33 32" fill="none" xmlns="http://www.w3.org/2000/svg">
<path d="M2.1 24.0008H30.9C31.78 24.0008 32.5 24.7208 32.5 25.6008C32.5 26.4808 31.78 27.2008 30.9 27.2008H2.1C1.22 27.2008 0.5 26.4808 0.5 25.6008C0.5 24.7208 1.22 24.0008 2.1 24.0008ZM19.444 9.26478C19.604 8.88078 19.7 8.44878 19.7 8.00078C19.7 6.24078 18.26 4.80078 16.5 4.80078C14.74 4.80078 13.3 6.24078 13.3 8.00078C13.3 8.44878 13.396 8.88078 13.556 9.26478C7.3 10.5608 2.532 15.8888 2.1 22.4008H30.9C30.468 15.8888 25.7 10.5608 19.444 9.26478Z" fill="#F9F9F9"/>
</svg>
