<svg width="33" height="32" viewBox="0 0 33 32" fill="none" xmlns="http://www.w3.org/2000/svg">
<path d="M20.6471 0.944C20.0391 0.336 19.2231 0 18.3751 0H6.90313C5.14312 0 3.70312 1.44 3.70312 3.2V28.8C3.70312 30.56 5.12712 32 6.88712 32H26.1031C27.8631 32 29.3031 30.56 29.3031 28.8V10.928C29.3031 10.08 28.9671 9.264 28.3591 8.672L20.6471 0.944ZM21.3031 25.6H11.7031C10.8231 25.6 10.1031 24.88 10.1031 24C10.1031 23.12 10.8231 22.4 11.7031 22.4H21.3031C22.1831 22.4 22.9031 23.12 22.9031 24C22.9031 24.88 22.1831 25.6 21.3031 25.6ZM21.3031 19.2H11.7031C10.8231 19.2 10.1031 18.48 10.1031 17.6C10.1031 16.72 10.8231 16 11.7031 16H21.3031C22.1831 16 22.9031 16.72 22.9031 17.6C22.9031 18.48 22.1831 19.2 21.3031 19.2ZM18.1031 9.6V2.4L26.9031 11.2H19.7031C18.8231 11.2 18.1031 10.48 18.1031 9.6Z" fill="#F9F9F9"/>
</svg>
