<svg width="29" height="32" viewBox="0 0 29 32" fill="none" xmlns="http://www.w3.org/2000/svg">
<path d="M25.7016 3.2H24.1016V1.6C24.1016 0.72 23.3816 0 22.5016 0C21.6216 0 20.9016 0.72 20.9016 1.6V3.2H8.10156V1.6C8.10156 0.72 7.38156 0 6.50156 0C5.62156 0 4.90156 0.72 4.90156 1.6V3.2H3.30156C1.52556 3.2 0.117562 4.64 0.117562 6.4L0.101562 28.8C0.101562 30.56 1.52556 32 3.30156 32H25.7016C27.4616 32 28.9016 30.56 28.9016 28.8V6.4C28.9016 4.64 27.4616 3.2 25.7016 3.2ZM24.1016 28.8H4.90156C4.02156 28.8 3.30156 28.08 3.30156 27.2V11.2H25.7016V27.2C25.7016 28.08 24.9816 28.8 24.1016 28.8ZM8.10156 14.4H12.9016C13.7816 14.4 14.5016 15.12 14.5016 16V20.8C14.5016 21.68 13.7816 22.4 12.9016 22.4H8.10156C7.22156 22.4 6.50156 21.68 6.50156 20.8V16C6.50156 15.12 7.22156 14.4 8.10156 14.4Z" fill="#F9F9F9"/>
</svg>
