<svg width="17" height="16" viewBox="0 0 17 16" fill="none" xmlns="http://www.w3.org/2000/svg">
<path d="M8.85938 4C9.95937 4 10.8594 3.1 10.8594 2C10.8594 0.9 9.95937 0 8.85938 0C7.75937 0 6.85938 0.9 6.85938 2C6.85938 3.1 7.75937 4 8.85938 4ZM8.85938 6C7.75937 6 6.85938 6.9 6.85938 8C6.85938 9.1 7.75937 10 8.85938 10C9.95937 10 10.8594 9.1 10.8594 8C10.8594 6.9 9.95937 6 8.85938 6ZM8.85938 12C7.75937 12 6.85938 12.9 6.85938 14C6.85938 15.1 7.75937 16 8.85938 16C9.95937 16 10.8594 15.1 10.8594 14C10.8594 12.9 9.95937 12 8.85938 12Z" fill="#F9F9F9"/>
</svg>
