<svg width="16" height="16" viewBox="0 0 16 16" fill="none" xmlns="http://www.w3.org/2000/svg">
<path d="M12 0H4C3.12 0 2.4 0.72 2.4 1.6V3.2C2.4 4.08 3.12 4.8 4 4.8H12C12.88 4.8 13.6 4.08 13.6 3.2V1.6C13.6 0.72 12.88 0 12 0ZM11.6 3.2H4.4C4.176 3.2 4 3.024 4 2.8V2C4 1.776 4.176 1.6 4.4 1.6H11.6C11.824 1.6 12 1.776 12 2V2.8C12 3.024 11.824 3.2 11.6 3.2ZM14.4 16H1.6C0.72 16 0 15.28 0 14.4V13.6H16V14.4C16 15.28 15.28 16 14.4 16ZM13.224 6.552C12.968 5.976 12.392 5.6 11.76 5.6H4.24C3.608 5.6 3.032 5.976 2.776 6.552L0 12.8H16L13.224 6.552ZM6 11.2H5.2C4.976 11.2 4.8 11.024 4.8 10.8C4.8 10.576 4.976 10.4 5.2 10.4H6C6.224 10.4 6.4 10.576 6.4 10.8C6.4 11.024 6.224 11.2 6 11.2ZM6 9.6H5.2C4.976 9.6 4.8 9.424 4.8 9.2C4.8 8.976 4.976 8.8 5.2 8.8H6C6.224 8.8 6.4 8.976 6.4 9.2C6.4 9.424 6.224 9.6 6 9.6ZM6 8H5.2C4.976 8 4.8 7.824 4.8 7.6C4.8 7.376 4.976 7.2 5.2 7.2H6C6.224 7.2 6.4 7.376 6.4 7.6C6.4 7.824 6.224 8 6 8ZM8.4 11.2H7.6C7.376 11.2 7.2 11.024 7.2 10.8C7.2 10.576 7.376 10.4 7.6 10.4H8.4C8.624 10.4 8.8 10.576 8.8 10.8C8.8 11.024 8.624 11.2 8.4 11.2ZM8.4 9.6H7.6C7.376 9.6 7.2 9.424 7.2 9.2C7.2 8.976 7.376 8.8 7.6 8.8H8.4C8.624 8.8 8.8 8.976 8.8 9.2C8.8 9.424 8.624 9.6 8.4 9.6ZM8.4 8H7.6C7.376 8 7.2 7.824 7.2 7.6C7.2 7.376 7.376 7.2 7.6 7.2H8.4C8.624 7.2 8.8 7.376 8.8 7.6C8.8 7.824 8.624 8 8.4 8ZM10.8 11.2H10C9.776 11.2 9.6 11.024 9.6 10.8C9.6 10.576 9.776 10.4 10 10.4H10.8C11.024 10.4 11.2 10.576 11.2 10.8C11.2 11.024 11.024 11.2 10.8 11.2ZM10.8 9.6H10C9.776 9.6 9.6 9.424 9.6 9.2C9.6 8.976 9.776 8.8 10 8.8H10.8C11.024 8.8 11.2 8.976 11.2 9.2C11.2 9.424 11.024 9.6 10.8 9.6ZM10.8 8H10C9.776 8 9.6 7.824 9.6 7.6C9.6 7.376 9.776 7.2 10 7.2H10.8C11.024 7.2 11.2 7.376 11.2 7.6C11.2 7.824 11.024 8 10.8 8Z" fill="#F9F9F9"/>
</svg>
