<svg width="25" height="22" viewBox="0 0 25 22" fill="none" xmlns="http://www.w3.org/2000/svg">
<path d="M4.5 3.0026C4.5 1.53177 5.69583 0.335938 7.16667 0.335938H17.8333C19.3042 0.335938 20.5 1.53177 20.5 3.0026V19.0026H23.1667C23.9042 19.0026 24.5 19.5984 24.5 20.3359C24.5 21.0734 23.9042 21.6693 23.1667 21.6693H18.5H6.5H1.83333C1.09583 21.6693 0.5 21.0734 0.5 20.3359C0.5 19.5984 1.09583 19.0026 1.83333 19.0026H4.5V3.0026ZM16.5 12.3359C16.8536 12.3359 17.1928 12.1955 17.4428 11.9454C17.6929 11.6954 17.8333 11.3562 17.8333 11.0026C17.8333 10.649 17.6929 10.3098 17.4428 10.0598C17.1928 9.80975 16.8536 9.66927 16.5 9.66927C16.1464 9.66927 15.8072 9.80975 15.5572 10.0598C15.3071 10.3098 15.1667 10.649 15.1667 11.0026C15.1667 11.3562 15.3071 11.6954 15.5572 11.9454C15.8072 12.1955 16.1464 12.3359 16.5 12.3359Z" fill="#F9F9F9"/>
</svg>
