<svg width="33" height="30" viewBox="0 0 33 30" fill="none" xmlns="http://www.w3.org/2000/svg">
<path d="M5.83333 4.33681C5.83333 2.37569 7.42778 0.78125 9.38889 0.78125H23.6111C25.5722 0.78125 27.1667 2.37569 27.1667 4.33681V25.6701H30.7222C31.7056 25.6701 32.5 26.4646 32.5 27.4479C32.5 28.4312 31.7056 29.2257 30.7222 29.2257H24.5H8.5H2.27778C1.29444 29.2257 0.5 28.4312 0.5 27.4479C0.5 26.4646 1.29444 25.6701 2.27778 25.6701H5.83333V4.33681ZM21.8333 16.7812C22.3048 16.7812 22.757 16.5939 23.0904 16.2606C23.4238 15.9272 23.6111 15.475 23.6111 15.0035C23.6111 14.532 23.4238 14.0798 23.0904 13.7464C22.757 13.413 22.3048 13.2257 21.8333 13.2257C21.3618 13.2257 20.9097 13.413 20.5763 13.7464C20.2429 14.0798 20.0556 14.532 20.0556 15.0035C20.0556 15.475 20.2429 15.9272 20.5763 16.2606C20.9097 16.5939 21.3618 16.7812 21.8333 16.7812Z" fill="#F9F9F9"/>
</svg>
