<svg width="40" height="40" viewBox="0 0 40 40" fill="none" xmlns="http://www.w3.org/2000/svg">
<rect width="40" height="40" rx="20" fill="#817CC6"/>
<path d="M28 17.0927V24.3654C28 25.1654 27.3455 25.82 26.5455 25.82H14.9091C14.5091 25.82 14.1818 25.4927 14.1818 25.0927C14.1818 24.6927 14.5091 24.3654 14.9091 24.3654H26.5455V17.0927C26.5455 16.6927 26.8727 16.3654 27.2727 16.3654C27.6727 16.3654 28 16.6927 28 17.0927ZM14.1818 22.9109C12.9745 22.9109 12 21.9363 12 20.729V16.3654C12 15.1581 12.9745 14.1836 14.1818 14.1836H22.9091C24.1164 14.1836 25.0909 15.1581 25.0909 16.3654V21.4563C25.0909 22.2563 24.4364 22.9109 23.6364 22.9109H14.1818ZM16.3636 18.5472C16.3636 19.7545 17.3382 20.729 18.5455 20.729C19.7527 20.729 20.7273 19.7545 20.7273 18.5472C20.7273 17.34 19.7527 16.3654 18.5455 16.3654C17.3382 16.3654 16.3636 17.34 16.3636 18.5472Z" fill="#F9F9F9"/>
</svg>
