<svg width="40" height="40" viewBox="0 0 40 40" fill="none" xmlns="http://www.w3.org/2000/svg">
<rect width="40" height="40" rx="20" fill="#999100"/>
<path d="M14.6667 14.6684C14.6667 13.6878 15.4639 12.8906 16.4444 12.8906H23.5556C24.5361 12.8906 25.3333 13.6878 25.3333 14.6684V25.3351H27.1111C27.6028 25.3351 28 25.7323 28 26.224C28 26.7156 27.6028 27.1128 27.1111 27.1128H24H16H12.8889C12.3972 27.1128 12 26.7156 12 26.224C12 25.7323 12.3972 25.3351 12.8889 25.3351H14.6667V14.6684ZM22.6667 20.8906C22.9024 20.8906 23.1285 20.797 23.2952 20.6303C23.4619 20.4636 23.5556 20.2375 23.5556 20.0017C23.5556 19.766 23.4619 19.5399 23.2952 19.3732C23.1285 19.2065 22.9024 19.1128 22.6667 19.1128C22.4309 19.1128 22.2048 19.2065 22.0381 19.3732C21.8714 19.5399 21.7778 19.766 21.7778 20.0017C21.7778 20.2375 21.8714 20.4636 22.0381 20.6303C22.2048 20.797 22.4309 20.8906 22.6667 20.8906Z" fill="#F9F9F9"/>
</svg>
