<svg width="17" height="16" viewBox="0 0 17 16" fill="none" xmlns="http://www.w3.org/2000/svg">
<path d="M13.8337 4.24501V1.57834C13.8337 1.08945 13.4337 0.689453 12.9448 0.689453H4.05588C3.56699 0.689453 3.16699 1.08945 3.16699 1.57834V4.24501H13.8337Z" fill="#F9F9F9" fill-opacity="0.5"/>
<path d="M14.1 4.91211H2.9C1.572 4.91211 0.5 5.98411 0.5 7.31211V11.3121C0.5 11.7521 0.86 12.1121 1.3 12.1121H3.7V13.7121C3.7 14.5921 4.42 15.3121 5.3 15.3121H11.7C12.58 15.3121 13.3 14.5921 13.3 13.7121V12.1121H15.7C16.14 12.1121 16.5 11.7521 16.5 11.3121V7.31211C16.5 5.98411 15.428 4.91211 14.1 4.91211ZM11.7 13.7121H5.3V10.5121H11.7V13.7121ZM13.3 8.51211C12.86 8.51211 12.5 8.15211 12.5 7.71211C12.5 7.27211 12.86 6.91211 13.3 6.91211C13.74 6.91211 14.1 7.27211 14.1 7.71211C14.1 8.15211 13.74 8.51211 13.3 8.51211Z" fill="#F9F9F9" fill-opacity="0.5"/>
</svg>
