<svg width="16" height="16" viewBox="0 0 16 16" fill="none" xmlns="http://www.w3.org/2000/svg">
<path d="M9.10689 0.909008C5.09408 0.798636 1.80658 4.01519 1.80658 8.00434H0.395395C0.0406282 8.00434 -0.132813 8.43006 0.119465 8.67446L2.31902 10.8819C2.47669 11.0396 2.72109 11.0396 2.87876 10.8819L5.07832 8.67446C5.33059 8.43006 5.14927 8.00434 4.80239 8.00434H3.38332C3.38332 4.9297 5.89034 2.44633 8.98075 2.48575C11.9135 2.52517 14.3811 4.99277 14.4205 7.92551C14.4599 11.008 11.9766 13.5229 8.90191 13.5229C7.63264 13.5229 6.45796 13.0893 5.52769 12.3561C5.21234 12.1118 4.77085 12.1354 4.48704 12.4192C4.15592 12.7582 4.17957 13.3101 4.55011 13.6018C5.74843 14.5399 7.2621 15.0997 8.90191 15.0997C12.8832 15.0997 16.1076 11.8122 15.9972 7.79937C15.8948 4.10191 12.8043 1.0115 9.10689 0.909008ZM8.70482 4.85086C8.38159 4.85086 8.11354 5.11891 8.11354 5.44214V8.34334C8.11354 8.61927 8.26333 8.87943 8.49984 9.02134L10.9596 10.4798C11.2434 10.6454 11.606 10.5508 11.7716 10.2748C11.9371 9.99104 11.8425 9.62839 11.5666 9.46283L9.2961 8.11472V5.43426C9.2961 5.11891 9.03594 4.85086 8.70482 4.85086Z" fill="#F9F9F9"/>
</svg>
