<svg width="40" height="40" viewBox="0 0 40 40" fill="none" xmlns="http://www.w3.org/2000/svg">
<rect width="40" height="40" rx="20" fill="#3B8BA8"/>
<path d="M24.6552 13.976C24.5912 13.976 24.5272 13.96 24.4712 13.928C22.9352 13.136 21.6072 12.8 20.0152 12.8C18.4312 12.8 16.9272 13.176 15.5592 13.928C15.3672 14.032 15.1272 13.96 15.0152 13.768C14.9112 13.576 14.9832 13.328 15.1752 13.224C16.6632 12.416 18.2952 12 20.0152 12C21.7192 12 23.2072 12.376 24.8392 13.216C25.0392 13.32 25.1112 13.56 25.0072 13.752C24.9352 13.896 24.7992 13.976 24.6552 13.976ZM13.2072 18.176C13.1272 18.176 13.0472 18.152 12.9752 18.104C12.7912 17.976 12.7512 17.728 12.8792 17.544C13.6712 16.424 14.6792 15.544 15.8792 14.928C18.3912 13.632 21.6072 13.624 24.1272 14.92C25.3272 15.536 26.3352 16.408 27.1272 17.52C27.2552 17.696 27.2152 17.952 27.0312 18.08C26.8472 18.208 26.5992 18.168 26.4712 17.984C25.7512 16.976 24.8392 16.184 23.7592 15.632C21.4632 14.456 18.5272 14.456 16.2392 15.64C15.1512 16.2 14.2392 17 13.5192 18.008C13.4552 18.12 13.3352 18.176 13.2072 18.176ZM18.2072 27.832C18.1032 27.832 17.9992 27.792 17.9272 27.712C17.2312 27.016 16.8552 26.568 16.3192 25.6C15.7672 24.616 15.4792 23.416 15.4792 22.128C15.4792 19.752 17.5112 17.816 20.0072 17.816C22.5032 17.816 24.5352 19.752 24.5352 22.128C24.5352 22.352 24.3592 22.528 24.1352 22.528C23.9112 22.528 23.7352 22.352 23.7352 22.128C23.7352 20.192 22.0632 18.616 20.0072 18.616C17.9512 18.616 16.2792 20.192 16.2792 22.128C16.2792 23.28 16.5352 24.344 17.0232 25.208C17.5352 26.128 17.8872 26.52 18.5032 27.144C18.6552 27.304 18.6552 27.552 18.5032 27.712C18.4152 27.792 18.3112 27.832 18.2072 27.832ZM23.9432 26.352C22.9912 26.352 22.1512 26.112 21.4632 25.64C20.2712 24.832 19.5592 23.52 19.5592 22.128C19.5592 21.904 19.7352 21.728 19.9592 21.728C20.1832 21.728 20.3592 21.904 20.3592 22.128C20.3592 23.256 20.9352 24.32 21.9112 24.976C22.4792 25.36 23.1432 25.544 23.9432 25.544C24.1352 25.544 24.4552 25.52 24.7752 25.464C24.9912 25.424 25.1992 25.568 25.2392 25.792C25.2792 26.008 25.1352 26.216 24.9112 26.256C24.4552 26.344 24.0552 26.352 23.9432 26.352ZM22.3352 28C22.3032 28 22.2632 27.992 22.2312 27.984C20.9592 27.632 20.1272 27.16 19.2552 26.304C18.1352 25.192 17.5192 23.712 17.5192 22.128C17.5192 20.832 18.6232 19.776 19.9832 19.776C21.3432 19.776 22.4472 20.832 22.4472 22.128C22.4472 22.984 23.1912 23.68 24.1112 23.68C25.0312 23.68 25.7752 22.984 25.7752 22.128C25.7752 19.112 23.1752 16.664 19.9752 16.664C17.7032 16.664 15.6232 17.928 14.6872 19.888C14.3752 20.536 14.2152 21.296 14.2152 22.128C14.2152 22.752 14.2712 23.736 14.7512 25.016C14.8312 25.224 14.7272 25.456 14.5192 25.528C14.3112 25.608 14.0792 25.496 14.0072 25.296C13.6152 24.248 13.4232 23.208 13.4232 22.128C13.4232 21.168 13.6072 20.296 13.9672 19.536C15.0312 17.304 17.3912 15.856 19.9752 15.856C23.6152 15.856 26.5752 18.664 26.5752 22.12C26.5752 23.416 25.4712 24.472 24.1112 24.472C22.7512 24.472 21.6472 23.416 21.6472 22.12C21.6472 21.264 20.9032 20.568 19.9832 20.568C19.0632 20.568 18.3192 21.264 18.3192 22.12C18.3192 23.488 18.8472 24.768 19.8152 25.728C20.5752 26.48 21.3032 26.896 22.4312 27.208C22.6472 27.264 22.7672 27.488 22.7112 27.696C22.6712 27.88 22.5032 28 22.3352 28Z" fill="#F9F9F9"/>
</svg>
