<svg width="40" height="40" viewBox="0 0 40 40" fill="none" xmlns="http://www.w3.org/2000/svg">
<rect width="40" height="40" rx="20" fill="#3B8BA8"/>
<path d="M22.0736 12.472C21.7696 12.168 21.3616 12 20.9376 12H15.2016C14.3216 12 13.6016 12.72 13.6016 13.6V26.4C13.6016 27.28 14.3136 28 15.1936 28H24.8016C25.6816 28 26.4016 27.28 26.4016 26.4V17.464C26.4016 17.04 26.2336 16.632 25.9296 16.336L22.0736 12.472ZM22.4016 24.8H17.6016C17.1616 24.8 16.8016 24.44 16.8016 24C16.8016 23.56 17.1616 23.2 17.6016 23.2H22.4016C22.8416 23.2 23.2016 23.56 23.2016 24C23.2016 24.44 22.8416 24.8 22.4016 24.8ZM22.4016 21.6H17.6016C17.1616 21.6 16.8016 21.24 16.8016 20.8C16.8016 20.36 17.1616 20 17.6016 20H22.4016C22.8416 20 23.2016 20.36 23.2016 20.8C23.2016 21.24 22.8416 21.6 22.4016 21.6ZM20.8016 16.8V13.2L25.2016 17.6H21.6016C21.1616 17.6 20.8016 17.24 20.8016 16.8Z" fill="#F9F9F9"/>
</svg>
