<svg width="33" height="26" viewBox="0 0 33 26" fill="none" xmlns="http://www.w3.org/2000/svg">
<path d="M29.8563 0.896606H9.68395C8.75603 0.896606 8.02982 1.36729 7.54569 2.08005L0.767794 12.2603C0.471933 12.7176 0.471933 13.2959 0.767794 13.7531L7.54569 23.9199C8.02982 24.6192 8.75603 25.1034 9.68395 25.1034H29.8563C31.3356 25.1034 32.5459 23.893 32.5459 22.4137V3.58625C32.5459 2.10694 31.3356 0.896606 29.8563 0.896606ZM24.8804 18.7827C24.3559 19.3072 23.5087 19.3072 22.9842 18.7827L19.0977 14.8962L15.2112 18.7827C14.6867 19.3072 13.8394 19.3072 13.315 18.7827C12.7905 18.2582 12.7905 17.411 13.315 16.8865L17.2015 13L13.315 9.11346C12.7905 8.58898 12.7905 7.74174 13.315 7.21726C13.8394 6.69278 14.6867 6.69278 15.2112 7.21726L19.0977 11.1038L22.9842 7.21726C23.5087 6.69278 24.3559 6.69278 24.8804 7.21726C25.4049 7.74174 25.4049 8.58898 24.8804 9.11346L20.9939 13L24.8804 16.8865C25.3915 17.3976 25.3915 18.2582 24.8804 18.7827Z" fill="#F9F9F9"/>
</svg>
