<svg width="96" height="96" viewBox="0 0 96 96" fill="none" xmlns="http://www.w3.org/2000/svg">
<path d="M48 96C72.8727 96 93.3382 77.0618 95.7818 52.8C96.0436 50.2255 93.9927 48 91.4182 48C89.1927 48 87.3164 49.6582 87.0982 51.84C85.1782 71.7382 68.3782 87.2727 48 87.2727C34.3855 87.2727 22.3855 80.3345 15.36 69.8182H21.8182C24.2182 69.8182 26.1818 67.8545 26.1818 65.4545C26.1818 63.0545 24.2182 61.0909 21.8182 61.0909H4.36364C1.96364 61.0909 0 63.0545 0 65.4545V82.9091C0 85.3091 1.96364 87.2727 4.36364 87.2727C6.76364 87.2727 8.72727 85.3091 8.72727 82.9091V75.6218C17.4109 87.9273 31.7673 96 48 96ZM48 0C23.1273 0 2.66182 18.9382 0.218182 43.2C-2.11326e-07 45.7745 2.00727 48 4.58182 48C6.80727 48 8.68364 46.3418 8.90182 44.16C10.8218 24.2618 27.6218 8.72727 48 8.72727C61.6145 8.72727 73.6145 15.6655 80.64 26.1818H74.1818C71.7818 26.1818 69.8182 28.1455 69.8182 30.5455C69.8182 32.9455 71.7818 34.9091 74.1818 34.9091H91.6364C94.0364 34.9091 96 32.9455 96 30.5455V13.0909C96 10.6909 94.0364 8.72727 91.6364 8.72727C89.2364 8.72727 87.2727 10.6909 87.2727 13.0909V20.3782C78.5891 8.07273 64.2327 0 48 0ZM44.16 21.2945C44.16 19.1564 45.9055 17.4545 48 17.4545C50.0945 17.4545 51.84 19.1564 51.84 21.2945V22.9091C56.5091 23.7382 59.4764 26.2255 61.2655 28.5818C62.7491 30.5018 61.9636 33.2945 59.6945 34.2545C58.1236 34.9091 56.2909 34.3855 55.2436 33.0327C54.0218 31.3745 51.84 29.6727 48.2618 29.6727C45.2073 29.6727 40.3636 31.2873 40.3636 35.7382C40.3636 39.8836 44.1164 41.4545 51.8836 44.0291C62.3564 47.6509 65.0182 52.9745 65.0182 59.0836C65.0182 70.5164 54.1091 72.7418 51.84 73.1346V74.7491C51.84 76.8436 50.1382 78.5891 48 78.5891C45.8618 78.5891 44.16 76.8873 44.16 74.7491V72.9164C41.4109 72.2618 35.7382 70.2545 32.4218 63.7527C31.4182 61.8327 32.5527 59.3018 34.56 58.5164C36.3491 57.8182 38.4873 58.4727 39.4036 60.1745C40.8 62.8364 43.5491 66.1527 48.6545 66.1527C52.7127 66.1527 57.2945 64.0582 57.2945 59.1273C57.2945 54.9382 54.24 52.7564 47.3455 50.2691C42.5455 48.5673 32.7273 45.7745 32.7273 35.8255C32.7273 35.3891 32.7709 25.3527 44.16 22.9091V21.2945Z" fill="#5E8708"/>
</svg>
