<svg width="269" height="320" viewBox="0 0 269 320" fill="none" xmlns="http://www.w3.org/2000/svg">
<path d="M123.398 317.452C136.847 320.927 152.203 321.655 165.54 314.426C180.055 306.524 191.375 290.104 200.398 268.417C204.769 257.993 208.692 238.042 210.821 233.055C212.951 228.123 218.106 209.294 219.956 205.035C223.486 196.965 249.041 154.262 253.188 146.248C255.037 142.661 264.34 126.073 266.47 119.853C268.655 113.352 270.617 100.519 264.172 96.3156C253.804 89.5347 244.334 112.007 240.747 120.133C237.609 127.194 227.521 143.558 224.271 147.537C222.141 150.171 215.416 157.512 209.981 164.629C204.657 171.578 202.751 178.92 194.625 174.156C187.732 170.065 192.944 161.379 195.634 150.227C198.66 137.674 203.872 124.448 205.161 117.667C206.898 108.364 209.588 85.6679 210.597 80.0078C212.895 66.9503 222.758 32.3732 205.217 31.0842C187.732 29.7953 190.31 66.6701 186.836 77.4859C185.995 80.1198 181.4 95.1387 178.542 102.648C175.74 110.046 172.826 116.546 170.584 123.047C166.325 135.376 164.812 145.127 161.169 144.062C156.069 142.605 161.561 126.858 161.225 113.912C160.833 98.6693 163.635 81.689 164.532 70.5929C164.756 67.6228 165.933 51.1468 166.269 48.3448C166.605 45.5427 168.398 33.6061 169.015 30.0755C169.575 27.0493 170.808 22.0617 170.808 17.2422C170.976 9.62067 170.528 0.598116 162.514 0.0377092C154.893 -0.466657 150.129 4.07264 146.15 14.6083C142.9 23.1825 141.779 34.6148 139.537 44.8142C138.024 51.7633 135.895 58.0959 134.774 63.4197C133.541 69.304 132.476 77.8222 131.019 86.0602C129.898 92.3367 128.273 98.1089 127.825 104.441C126.592 121.142 127.769 134.255 123.622 133.807C116.953 133.022 117.738 124.224 116.953 112.455C116.505 105.843 115.552 98.8374 115.44 91.4961C115.16 77.7661 112.526 64.7647 112.189 59.3288C111.573 47.5042 115.328 39.042 115.496 27.7778C115.664 17.9707 113.03 9.78879 105.577 8.61193C95.0971 6.93071 92.183 15.3368 89.381 28.8987C87.9239 36.0158 87.6437 43.9736 87.4195 51.9874C87.2514 56.919 86.1306 60.5056 85.6822 64.8207C85.0098 71.3215 84.8977 77.9903 84.7295 82.3054C84.5054 88.1897 84.5054 98.6133 84.4493 110.214C84.3933 120.357 86.1866 126.634 84.6175 136.665C83.4406 144.174 82.3758 146.248 82.0396 153.981C81.5352 165.078 79.1255 173.315 70.1029 180.489C67.2449 182.73 63.266 186.709 60.8562 185.252C55.3082 181.946 51.0491 163.62 46.79 153.869C43.9319 147.313 39.7289 128.707 30.7063 117.611C23.8133 109.093 15.5753 102.816 6.44069 104.946C-1.46105 106.795 -0.788587 113.8 1.62116 122.991C4.81548 135.376 8.85042 147.201 12.6612 155.831C19.1059 170.457 25.9989 194.779 28.4647 204.53C29.5295 208.677 33.5644 225.265 40.9057 243.254C49.3118 263.877 61.4166 286.462 68.0855 295.82C73.8577 303.946 91.3424 314.09 102.887 316.051C112.862 317.732 121.212 316.892 123.398 317.452Z" fill="#F9F9F9" fill-opacity="0.2"/>
</svg>
