<svg width="17" height="16" viewBox="0 0 17 16" fill="none" xmlns="http://www.w3.org/2000/svg">
<path d="M11.35 0.85L12.79 2.29L9.91 5.17L11.33 6.59L14.21 3.71L15.65 5.15C15.96 5.46 16.5 5.24 16.5 4.79V0.5C16.5 0.22 16.28 0 16 0H11.71C11.26 0 11.04 0.54 11.35 0.85ZM5.29 0H1C0.72 0 0.5 0.22 0.5 0.5V4.79C0.5 5.24 1.04 5.46 1.35 5.14L2.79 3.7L7.5 8.4V15C7.5 15.55 7.95 16 8.5 16C9.05 16 9.5 15.55 9.5 15V8C9.5 7.74 9.39 7.48 9.21 7.29L4.21 2.28L5.65 0.84C5.96 0.54 5.74 0 5.29 0Z" fill="#F9F9F9"/>
</svg>
