<svg width="16" height="12" viewBox="0 0 16 12" fill="none" xmlns="http://www.w3.org/2000/svg">
<path d="M0.324553 4.48692C0.718244 4.88061 1.34352 4.91921 1.76809 4.56411C5.37306 1.59985 10.6068 1.59985 14.2195 4.55639C14.6518 4.91149 15.2848 4.88061 15.6785 4.48692C16.1339 4.03147 16.1031 3.27497 15.6013 2.86584C11.1935 -0.739134 4.81726 -0.739134 0.401747 2.86584C-0.100016 3.26725 -0.138613 4.02375 0.324553 4.48692ZM6.31483 10.4772L7.44959 11.612C7.75065 11.913 8.23697 11.913 8.53803 11.612L9.67278 10.4772C10.0356 10.1144 9.9584 9.48911 9.49524 9.24981C8.55347 8.76348 7.42643 8.76348 6.47694 9.24981C6.03693 9.48911 5.95202 10.1144 6.31483 10.4772ZM3.43548 7.59785C3.81374 7.9761 4.40813 8.0147 4.84814 7.6982C6.73168 6.36274 9.26365 6.36274 11.1472 7.6982C11.5872 8.00698 12.1816 7.9761 12.5598 7.59785L12.5676 7.59013C13.0307 7.12697 12.9999 6.33958 12.4672 5.96133C9.81173 4.03919 6.19132 4.03919 3.52812 5.96133C2.99548 6.3473 2.9646 7.12697 3.43548 7.59785Z" fill="#F9F9F9"/>
</svg>
