<svg width="280" height="3" viewBox="0 0 280 3" fill="none" xmlns="http://www.w3.org/2000/svg">
<path d="M0.21875 2.224V0.0800002H15.7388V2.224H0.21875ZM15.75 2.224V0.0800002H31.27V2.224H15.75ZM31.2812 2.224V0.0800002H46.8013V2.224H31.2812ZM46.8125 2.224V0.0800002H62.3325V2.224H46.8125ZM62.3438 2.224V0.0800002H77.8638V2.224H62.3438ZM77.875 2.224V0.0800002H93.395V2.224H77.875ZM93.4062 2.224V0.0800002H108.926V2.224H93.4062ZM108.938 2.224V0.0800002H124.458V2.224H108.938ZM124.469 2.224V0.0800002H139.989V2.224H124.469ZM140 2.224V0.0800002H155.52V2.224H140ZM155.531 2.224V0.0800002H171.051V2.224H155.531ZM171.062 2.224V0.0800002H186.583V2.224H171.062ZM186.594 2.224V0.0800002H202.114V2.224H186.594ZM202.125 2.224V0.0800002H217.645V2.224H202.125ZM217.656 2.224V0.0800002H233.176V2.224H217.656ZM233.188 2.224V0.0800002H248.708V2.224H233.188ZM248.719 2.224V0.0800002H264.239V2.224H248.719ZM264.25 2.224V0.0800002H279.77V2.224H264.25Z" fill="#F9F9F9"/>
</svg>
