<svg width="40" height="40" viewBox="0 0 40 40" fill="none" xmlns="http://www.w3.org/2000/svg">
<rect width="40" height="40" rx="20" fill="#A75C39"/>
<path fill-rule="evenodd" clip-rule="evenodd" d="M17.8182 20.7266C15.8764 20.7266 12 21.7011 12 23.6357V25.0902C12 25.4902 12.3273 25.8175 12.7273 25.8175H22.9091C23.3091 25.8175 23.6364 25.4902 23.6364 25.0902V23.6357C23.6364 21.7011 19.76 20.7266 17.8182 20.7266Z" fill="#F9F9F9"/>
<path fill-rule="evenodd" clip-rule="evenodd" d="M23.3965 20.8203C24.3928 21.4967 25.091 22.413 25.091 23.6349V25.8167H27.2728C27.6728 25.8167 28.0001 25.4894 28.0001 25.0894V23.6349C28.0001 22.0494 25.4038 21.1112 23.3965 20.8203Z" fill="#F9F9F9"/>
<path d="M17.8183 19.9979C19.4249 19.9979 20.7274 18.6954 20.7274 17.0888C20.7274 15.4821 19.4249 14.1797 17.8183 14.1797C16.2116 14.1797 14.9092 15.4821 14.9092 17.0888C14.9092 18.6954 16.2116 19.9979 17.8183 19.9979Z" fill="#F9F9F9"/>
<path fill-rule="evenodd" clip-rule="evenodd" d="M22.1821 19.9979C23.7894 19.9979 25.0912 18.6961 25.0912 17.0888C25.0912 15.4815 23.7894 14.1797 22.1821 14.1797C21.8403 14.1797 21.5203 14.2524 21.2148 14.3542C21.8185 15.1033 22.1821 16.0561 22.1821 17.0888C22.1821 18.1215 21.8185 19.0742 21.2148 19.8233C21.5203 19.9251 21.8403 19.9979 22.1821 19.9979Z" fill="#F9F9F9"/>
</svg>
