<svg width="16" height="14" viewBox="0 0 16 14" fill="none" xmlns="http://www.w3.org/2000/svg">
<path d="M15.9879 5.16245L14.8696 1.16852C14.7098 0.84901 14.3903 0.609375 14.0708 0.609375H1.92923C1.60972 0.609375 1.2902 0.84901 1.21032 1.16852L0.0121465 5.16245C-0.067732 5.7216 0.251782 6.20087 0.810932 6.20087H2.56826L1.6896 12.5113C1.60972 12.9905 2.00911 13.3899 2.48838 13.3899C2.88777 13.3899 3.20729 13.0704 3.28717 12.671L3.76644 9.39601H12.3134L12.7128 12.671C12.7927 13.0704 13.1122 13.3899 13.5116 13.3899C13.9909 13.3899 14.3903 12.9905 14.3104 12.5113L13.5116 6.20087H15.1891C15.7482 6.20087 16.0677 5.7216 15.9879 5.16245ZM3.76644 9.39601L4.16583 6.20087H11.8342L12.2336 9.39601" fill="#F9F9F9"/>
</svg>
