<svg width="16" height="16" viewBox="0 0 16 16" fill="none" xmlns="http://www.w3.org/2000/svg">
<path d="M9.59961 5.6H6.39961C5.95961 5.6 5.59961 5.24 5.59961 4.8C5.59961 4.36 5.95961 4 6.39961 4H9.59961C10.0396 4 10.3996 4.36 10.3996 4.8C10.3996 5.24 10.0396 5.6 9.59961 5.6Z" fill="#F9F9F9"/>
<path d="M9.59961 8.00039H6.39961C5.95961 8.00039 5.59961 7.64039 5.59961 7.20039C5.59961 6.76039 5.95961 6.40039 6.39961 6.40039H9.59961C10.0396 6.40039 10.3996 6.76039 10.3996 7.20039C10.3996 7.64039 10.0396 8.00039 9.59961 8.00039Z" fill="#F9F9F9"/>
<path d="M13.9998 1.2L12.7998 0L11.5998 1.2L10.3998 0L9.1998 1.2L7.9998 0L6.7998 1.2L5.5998 0L4.3998 1.2L3.1998 0V11.2H1.5998C1.1598 11.2 0.799805 11.56 0.799805 12V13.6C0.799805 14.928 1.8718 16 3.1998 16H12.7998C14.1278 16 15.1998 14.928 15.1998 13.6V0L13.9998 1.2ZM10.3998 14.4H3.1998C2.7598 14.4 2.3998 14.04 2.3998 13.6V12.8H4.7998H7.9998H10.3998V14.4ZM13.5998 13.6C13.5998 14.04 13.2398 14.4 12.7998 14.4C12.3598 14.4 11.9998 14.04 11.9998 13.6V12C11.9998 11.56 11.6398 11.2 11.1998 11.2H9.5998H7.9998H4.7998V2.4H13.5998V13.6Z" fill="#F9F9F9"/>
<path d="M12.0002 5.6C12.442 5.6 12.8002 5.24183 12.8002 4.8C12.8002 4.35817 12.442 4 12.0002 4C11.5584 4 11.2002 4.35817 11.2002 4.8C11.2002 5.24183 11.5584 5.6 12.0002 5.6Z" fill="#F9F9F9"/>
<path d="M12.0002 8.00039C12.442 8.00039 12.8002 7.64222 12.8002 7.20039C12.8002 6.75856 12.442 6.40039 12.0002 6.40039C11.5584 6.40039 11.2002 6.75856 11.2002 7.20039C11.2002 7.64222 11.5584 8.00039 12.0002 8.00039Z" fill="#F9F9F9"/>
</svg>
