<svg width="17" height="16" viewBox="0 0 17 16" fill="none" xmlns="http://www.w3.org/2000/svg">
<path d="M12.5 0H4.5C3.62 0 2.9 0.72 2.9 1.6V3.2C2.9 4.08 3.62 4.8 4.5 4.8H12.5C13.38 4.8 14.1 4.08 14.1 3.2V1.6C14.1 0.72 13.38 0 12.5 0ZM12.1 3.2H4.9C4.676 3.2 4.5 3.024 4.5 2.8V2C4.5 1.776 4.676 1.6 4.9 1.6H12.1C12.324 1.6 12.5 1.776 12.5 2V2.8C12.5 3.024 12.324 3.2 12.1 3.2ZM14.9 16H2.1C1.22 16 0.5 15.28 0.5 14.4V13.6H16.5V14.4C16.5 15.28 15.78 16 14.9 16ZM13.724 6.552C13.468 5.976 12.892 5.6 12.26 5.6H4.74C4.108 5.6 3.532 5.976 3.276 6.552L0.5 12.8H16.5L13.724 6.552ZM6.5 11.2H5.7C5.476 11.2 5.3 11.024 5.3 10.8C5.3 10.576 5.476 10.4 5.7 10.4H6.5C6.724 10.4 6.9 10.576 6.9 10.8C6.9 11.024 6.724 11.2 6.5 11.2ZM6.5 9.6H5.7C5.476 9.6 5.3 9.424 5.3 9.2C5.3 8.976 5.476 8.8 5.7 8.8H6.5C6.724 8.8 6.9 8.976 6.9 9.2C6.9 9.424 6.724 9.6 6.5 9.6ZM6.5 8H5.7C5.476 8 5.3 7.824 5.3 7.6C5.3 7.376 5.476 7.2 5.7 7.2H6.5C6.724 7.2 6.9 7.376 6.9 7.6C6.9 7.824 6.724 8 6.5 8ZM8.9 11.2H8.1C7.876 11.2 7.7 11.024 7.7 10.8C7.7 10.576 7.876 10.4 8.1 10.4H8.9C9.124 10.4 9.3 10.576 9.3 10.8C9.3 11.024 9.124 11.2 8.9 11.2ZM8.9 9.6H8.1C7.876 9.6 7.7 9.424 7.7 9.2C7.7 8.976 7.876 8.8 8.1 8.8H8.9C9.124 8.8 9.3 8.976 9.3 9.2C9.3 9.424 9.124 9.6 8.9 9.6ZM8.9 8H8.1C7.876 8 7.7 7.824 7.7 7.6C7.7 7.376 7.876 7.2 8.1 7.2H8.9C9.124 7.2 9.3 7.376 9.3 7.6C9.3 7.824 9.124 8 8.9 8ZM11.3 11.2H10.5C10.276 11.2 10.1 11.024 10.1 10.8C10.1 10.576 10.276 10.4 10.5 10.4H11.3C11.524 10.4 11.7 10.576 11.7 10.8C11.7 11.024 11.524 11.2 11.3 11.2ZM11.3 9.6H10.5C10.276 9.6 10.1 9.424 10.1 9.2C10.1 8.976 10.276 8.8 10.5 8.8H11.3C11.524 8.8 11.7 8.976 11.7 9.2C11.7 9.424 11.524 9.6 11.3 9.6ZM11.3 8H10.5C10.276 8 10.1 7.824 10.1 7.6C10.1 7.376 10.276 7.2 10.5 7.2H11.3C11.524 7.2 11.7 7.376 11.7 7.6C11.7 7.824 11.524 8 11.3 8Z" fill="#F9F9F9" fill-opacity="0.5"/>
</svg>
