<svg width="40" height="41" viewBox="0 0 40 41" fill="none" xmlns="http://www.w3.org/2000/svg">
<rect y="0.5" width="40" height="40" rx="20" fill="#BD7E6D"/>
<path d="M20.6668 14.0573V14.349C20.8445 14.3823 21.0168 14.424 21.1723 14.4656C21.5279 14.5601 21.739 14.9268 21.6446 15.2823C21.5501 15.6379 21.1834 15.849 20.8279 15.7545C20.5251 15.674 20.2418 15.6184 19.989 15.6156C19.7862 15.6129 19.5806 15.6629 19.4501 15.7379C19.3917 15.774 19.364 15.8045 19.3529 15.8212C19.3445 15.8351 19.3334 15.8545 19.3334 15.899C19.3334 15.9073 19.3334 15.9129 19.3334 15.9157C19.339 15.9212 19.3584 15.949 19.4251 15.9879C19.5862 16.0851 19.8251 16.1601 20.1862 16.2684L20.2112 16.2768C20.5195 16.3684 20.9307 16.4934 21.264 16.7018C21.6446 16.9407 21.989 17.3379 21.9973 17.949C22.0057 18.574 21.6807 19.0296 21.2557 19.2962C21.0695 19.4101 20.8695 19.4907 20.664 19.5407V19.8351C20.664 20.2046 20.3668 20.5018 19.9973 20.5018C19.6279 20.5018 19.3306 20.2046 19.3306 19.8351V19.5185C19.0667 19.4546 18.8251 19.3712 18.6195 19.3018C18.5612 19.2824 18.5056 19.2629 18.4528 19.2462C18.1028 19.1296 17.914 18.7518 18.0306 18.4018C18.1473 18.0518 18.5251 17.8629 18.8751 17.9796C18.9473 18.0046 19.014 18.0268 19.0779 18.049C19.4556 18.1768 19.7279 18.2685 20.0195 18.2796C20.2418 18.2879 20.439 18.2351 20.5529 18.1657C20.6056 18.1323 20.6307 18.1046 20.6418 18.0851C20.6529 18.0685 20.6668 18.0351 20.664 17.9712V17.9657C20.664 17.9379 20.664 17.9073 20.5529 17.8379C20.3945 17.7379 20.1556 17.6601 19.8001 17.5518L19.7473 17.5351C19.4473 17.4462 19.0529 17.3268 18.7362 17.1351C18.3612 16.9101 18.0001 16.524 17.9973 15.9101C17.9945 15.274 18.3556 14.8379 18.7667 14.5934C18.9445 14.4879 19.1362 14.4156 19.3279 14.3656V14.0573C19.3279 13.6879 19.6251 13.3906 19.9945 13.3906C20.364 13.3906 20.6612 13.6879 20.6612 14.0573H20.6668ZM27.7835 22.7324C28.1474 23.2268 28.0418 23.9213 27.5474 24.2852L24.0307 26.8769C23.3807 27.3547 22.5973 27.613 21.789 27.613H17.3334H12.8889C12.3972 27.613 12 27.2158 12 26.7241V24.9463C12 24.4546 12.3972 24.0574 12.8889 24.0574H13.9111L15.1584 23.0574C15.7889 22.5518 16.5723 22.2796 17.3806 22.2796H19.5556H20.0001H21.7779C22.2696 22.2796 22.6668 22.6768 22.6668 23.1685C22.6668 23.6602 22.2696 24.0574 21.7779 24.0574H20.0001H19.5556C19.3112 24.0574 19.1112 24.2574 19.1112 24.5019C19.1112 24.7463 19.3112 24.9463 19.5556 24.9463H22.9057L26.2307 22.4963C26.7252 22.1324 27.4196 22.2379 27.7835 22.7324ZM17.3778 24.0574H17.3528C17.3612 24.0574 17.3695 24.0574 17.3778 24.0574Z" fill="#F9F9F9"/>
</svg>
