<svg width="454" height="160" viewBox="0 0 454 160" fill="none" xmlns="http://www.w3.org/2000/svg">
<path d="M80.4785 153.964V122.225H92.4521C94.567 122.225 96.1613 122.322 97.2838 122.534C98.8456 122.794 100.147 123.282 101.204 124.014C102.262 124.746 103.108 125.771 103.742 127.073C104.377 128.39 104.702 129.838 104.702 131.4C104.702 134.101 103.84 136.378 102.132 138.249C100.407 140.12 97.3163 141.047 92.8263 141.047H84.692V153.948H80.4948L80.4785 153.964ZM84.6758 137.305H92.8751C95.5919 137.305 97.5116 136.801 98.6504 135.792C99.7891 134.784 100.359 133.352 100.359 131.53C100.359 130.196 100.017 129.074 99.3499 128.114C98.6829 127.17 97.7881 126.536 96.6981 126.243C95.9986 126.064 94.6809 125.966 92.7774 125.966H84.6595V137.305H84.6758Z" fill="#F9F9F9"/>
<path d="M124.631 153.964V150.58C122.841 153.183 120.401 154.485 117.326 154.485C115.976 154.485 114.707 154.224 113.519 153.704C112.348 153.183 111.469 152.533 110.9 151.735C110.331 150.955 109.924 149.978 109.696 148.84C109.533 148.075 109.452 146.855 109.452 145.195V130.944H113.357V143.699C113.357 145.732 113.438 147.099 113.601 147.815C113.845 148.84 114.365 149.637 115.162 150.222C115.96 150.808 116.936 151.101 118.107 151.101C119.278 151.101 120.368 150.808 121.393 150.206C122.418 149.604 123.15 148.791 123.573 147.766C123.996 146.725 124.208 145.228 124.208 143.276V130.961H128.112V153.964H124.631Z" fill="#F9F9F9"/>
<path d="M134.229 153.964V130.961H137.743V134.23C139.435 131.709 141.876 130.44 145.064 130.44C146.447 130.44 147.716 130.684 148.887 131.188C150.059 131.676 150.921 132.343 151.49 133.14C152.06 133.938 152.466 134.914 152.71 136.02C152.857 136.736 152.922 138.005 152.922 139.811V153.948H149.017V139.957C149.017 138.363 148.871 137.175 148.562 136.394C148.253 135.613 147.716 134.979 146.951 134.507C146.171 134.035 145.276 133.808 144.235 133.808C142.575 133.808 141.144 134.328 139.94 135.386C138.736 136.443 138.134 138.444 138.134 141.389V153.948H134.229V153.964Z" fill="#F9F9F9"/>
<path d="M167.4 150.483L167.97 153.932C166.88 154.16 165.887 154.273 165.025 154.273C163.61 154.273 162.52 154.046 161.739 153.606C160.958 153.167 160.405 152.565 160.096 151.833C159.787 151.101 159.624 149.572 159.624 147.229V134.003H156.761V130.977H159.624V125.283L163.496 122.94V130.977H167.417V134.003H163.496V147.457C163.496 148.563 163.561 149.279 163.707 149.604C163.837 149.913 164.065 150.174 164.374 150.369C164.683 150.548 165.123 150.646 165.708 150.646C166.148 150.646 166.717 150.597 167.417 150.499L167.4 150.483Z" fill="#F9F9F9"/>
<path d="M169.76 142.462C169.76 138.2 170.947 135.044 173.306 132.994C175.291 131.286 177.699 130.44 180.546 130.44C183.702 130.44 186.288 131.481 188.306 133.547C190.307 135.613 191.315 138.477 191.315 142.137C191.315 145.098 190.876 147.424 189.981 149.116C189.103 150.808 187.801 152.126 186.11 153.069C184.418 154.013 182.563 154.485 180.562 154.485C177.341 154.485 174.738 153.46 172.753 151.394C170.768 149.328 169.776 146.35 169.776 142.479L169.76 142.462ZM173.762 142.462C173.762 145.407 174.396 147.619 175.681 149.084C176.967 150.548 178.577 151.28 180.529 151.28C182.482 151.28 184.076 150.548 185.361 149.067C186.646 147.587 187.281 145.358 187.281 142.332C187.281 139.485 186.63 137.338 185.345 135.874C184.043 134.409 182.449 133.677 180.529 133.677C178.61 133.677 176.967 134.409 175.681 135.857C174.396 137.305 173.762 139.518 173.762 142.462Z" fill="#F9F9F9"/>
<path d="M223.12 153.964V151.069C221.655 153.346 219.524 154.485 216.694 154.485C214.855 154.485 213.18 153.981 211.634 152.972C210.105 151.963 208.901 150.548 208.055 148.742C207.209 146.936 206.786 144.854 206.786 142.495C206.786 140.136 207.16 138.119 207.941 136.248C208.706 134.377 209.861 132.946 211.39 131.953C212.919 130.961 214.628 130.456 216.515 130.456C217.897 130.456 219.134 130.749 220.224 131.335C221.314 131.921 222.192 132.685 222.859 133.613V122.225H226.731V153.964H223.12ZM210.804 142.495C210.804 145.44 211.423 147.636 212.659 149.1C213.895 150.564 215.36 151.28 217.052 151.28C218.743 151.28 220.208 150.58 221.395 149.181C222.583 147.782 223.185 145.667 223.185 142.804C223.185 139.664 222.583 137.354 221.363 135.874C220.142 134.393 218.662 133.661 216.873 133.661C215.083 133.661 213.7 134.361 212.529 135.776C211.374 137.192 210.788 139.42 210.788 142.463L210.804 142.495Z" fill="#F9F9F9"/>
<path d="M248.596 146.562L252.631 147.067C251.996 149.426 250.825 151.248 249.1 152.549C247.376 153.851 245.196 154.501 242.512 154.501C239.144 154.501 236.476 153.46 234.508 151.394C232.539 149.328 231.547 146.416 231.547 142.674C231.547 138.932 232.539 135.809 234.54 133.661C236.541 131.514 239.112 130.457 242.3 130.457C245.489 130.457 247.88 131.498 249.833 133.596C251.785 135.695 252.761 138.64 252.761 142.43C252.761 142.658 252.761 143 252.745 143.471H235.598C235.744 145.993 236.46 147.929 237.745 149.279C239.03 150.629 240.641 151.296 242.544 151.296C243.976 151.296 245.196 150.922 246.205 150.174C247.213 149.426 248.011 148.222 248.612 146.579L248.596 146.562ZM235.793 140.266H248.629C248.45 138.33 247.962 136.883 247.148 135.906C245.912 134.41 244.301 133.661 242.317 133.661C240.527 133.661 239.014 134.263 237.81 135.451C236.59 136.655 235.907 138.249 235.777 140.25L235.793 140.266Z" fill="#F9F9F9"/>
<path d="M276.237 153.964L267.484 130.961H271.6L276.53 144.74C277.066 146.221 277.555 147.766 278.01 149.377C278.352 148.157 278.84 146.709 279.458 145.001L284.566 130.961H288.568L279.865 153.964H276.221H276.237Z" fill="#F9F9F9"/>
<path d="M307.765 146.562L311.8 147.067C311.165 149.426 309.994 151.248 308.269 152.549C306.545 153.851 304.365 154.501 301.681 154.501C298.313 154.501 295.645 153.46 293.677 151.394C291.708 149.328 290.716 146.416 290.716 142.674C290.716 138.932 291.708 135.809 293.709 133.661C295.694 131.53 298.281 130.457 301.469 130.457C304.658 130.457 307.049 131.498 309.002 133.596C310.954 135.695 311.93 138.64 311.93 142.43C311.93 142.658 311.93 143 311.914 143.471H294.767C294.913 145.993 295.629 147.929 296.914 149.279C298.199 150.629 299.81 151.296 301.713 151.296C303.145 151.296 304.365 150.922 305.374 150.174C306.382 149.426 307.179 148.222 307.781 146.579L307.765 146.562ZM294.962 140.266H307.798C307.619 138.33 307.131 136.883 306.317 135.906C305.081 134.41 303.47 133.661 301.486 133.661C299.696 133.661 298.183 134.263 296.979 135.451C295.759 136.655 295.076 138.249 294.946 140.25L294.962 140.266Z" fill="#F9F9F9"/>
<path d="M316.68 153.964V130.961H320.194V134.23C321.886 131.709 324.326 130.44 327.514 130.44C328.897 130.44 330.166 130.684 331.338 131.188C332.509 131.676 333.371 132.343 333.94 133.14C334.51 133.938 334.917 134.914 335.161 136.02C335.307 136.736 335.372 138.005 335.372 139.811V153.948H331.468V139.957C331.468 138.363 331.321 137.175 331.012 136.394C330.703 135.613 330.166 134.979 329.402 134.507C328.621 134.035 327.726 133.808 326.685 133.808C325.025 133.808 323.594 134.328 322.39 135.386C321.186 136.443 320.584 138.444 320.584 141.389V153.948H316.68V153.964Z" fill="#F9F9F9"/>
<path d="M349.851 150.483L350.421 153.932C349.331 154.16 348.338 154.273 347.476 154.273C346.061 154.273 344.971 154.046 344.19 153.606C343.409 153.167 342.856 152.565 342.547 151.833C342.238 151.101 342.075 149.572 342.075 147.229V134.003H339.212V130.977H342.075V125.283L345.947 122.94V130.977H349.868V134.003H345.947V147.457C345.947 148.563 346.012 149.279 346.159 149.604C346.289 149.913 346.516 150.174 346.826 150.369C347.135 150.548 347.574 150.646 348.16 150.646C348.599 150.646 349.168 150.597 349.868 150.499L349.851 150.483Z" fill="#F9F9F9"/>
<path d="M368.674 151.134C367.226 152.354 365.843 153.232 364.509 153.736C363.175 154.241 361.743 154.501 360.214 154.501C357.692 154.501 355.74 153.883 354.39 152.647C353.04 151.41 352.356 149.832 352.356 147.912C352.356 146.79 352.617 145.765 353.121 144.821C353.642 143.894 354.309 143.146 355.138 142.576C355.968 142.007 356.895 141.584 357.937 141.291C358.701 141.096 359.856 140.901 361.402 140.705C364.541 140.331 366.868 139.876 368.348 139.355C368.348 138.818 368.365 138.477 368.365 138.33C368.365 136.736 367.99 135.63 367.258 134.979C366.266 134.1 364.786 133.661 362.817 133.661C360.979 133.661 359.628 133.987 358.75 134.621C357.871 135.272 357.237 136.394 356.814 138.037L353.007 137.517C353.349 135.89 353.918 134.572 354.715 133.564C355.513 132.555 356.651 131.79 358.164 131.237C359.661 130.7 361.402 130.424 363.386 130.424C365.371 130.424 366.949 130.652 368.169 131.123C369.389 131.595 370.301 132.165 370.87 132.864C371.439 133.564 371.846 134.442 372.09 135.516C372.22 136.183 372.285 137.37 372.285 139.111V144.301C372.285 147.929 372.367 150.223 372.529 151.182C372.692 152.142 373.017 153.069 373.522 153.948H369.455C369.048 153.135 368.788 152.191 368.674 151.117V151.134ZM368.348 142.43C366.933 142.999 364.818 143.504 361.987 143.91C360.393 144.138 359.254 144.398 358.587 144.691C357.92 144.984 357.416 145.407 357.042 145.96C356.684 146.513 356.505 147.132 356.505 147.815C356.505 148.856 356.895 149.718 357.692 150.418C358.473 151.117 359.628 151.459 361.141 151.459C362.654 151.459 363.972 151.134 365.143 150.467C366.315 149.816 367.177 148.905 367.714 147.766C368.137 146.887 368.348 145.586 368.348 143.862V142.43Z" fill="#F9F9F9"/>
<path d="M59.5899 45.0634H44.0373V80.0079C44.0373 86.0923 47.6001 87.4101 53.0825 87.4101C55.1486 87.4101 57.3774 87.1172 59.5899 87.1172V105.631C54.9859 105.777 50.4145 106.363 45.8105 106.363C24.3362 106.363 18.8537 100.148 18.8537 79.2596V45.0471H6.13184V28.7461H18.87V14.9668L44.0535 5.49854V28.7461H59.6062V45.0471L59.5899 45.0634Z" fill="#F9F9F9"/>
<path d="M407.653 26.5335C393.564 26.5335 380.956 33.0734 373.44 43.6641V28.746H357.888V5.51465L332.704 14.9829V28.7622H319.966V35.9203C313.377 28.3555 301.566 26.5497 289.463 26.5497C280.727 26.5497 271.844 28.0302 265.027 31.8858C258.211 35.8715 253.477 42.3952 253.038 52.4653H276.578C277.766 45.958 282.207 42.8344 289.17 42.8344C294.359 42.8344 301.322 45.0632 301.322 50.8222C301.322 55.5563 298.947 57.053 294.652 57.9315C280.06 60.9087 258.667 60.0627 251.996 74.265V59.7048C251.996 45.0469 249.328 26.5335 224.91 26.5335C214.547 26.5335 206.965 30.8283 200.897 38.9788C196.749 29.6407 188.159 26.5335 178.545 26.5335C168.93 26.5335 161.072 31.5767 156.485 39.2716H156.175V28.746H131.74V105.614H156.924V68.1481C156.924 52.4491 160.779 47.2594 169.825 47.2594C176.625 47.2594 179.293 52.8883 179.293 61.9336V105.614H204.476V68.0017C204.476 55.5563 205.518 47.2594 216.32 47.2594C222.86 47.2594 226.829 52.1562 226.829 60.4531V105.614H252.013V94.9747C255.966 103.695 265.19 107.843 276.155 107.843C285.33 107.843 294.961 105.175 301.469 98.3748C301.762 100.88 302.071 103.255 302.949 105.631H328.263C325.318 99.5624 325.318 92.4531 325.318 85.9295V52.3189C325.318 49.6346 325.042 47.2269 324.537 45.0632H332.704V79.2757C332.704 100.164 338.187 106.379 359.661 106.379C364.265 106.379 368.836 105.793 373.44 105.647V91.9976C380.712 102.23 392.962 107.859 408.238 107.859C425.418 107.859 441.865 100.164 446.453 82.3993H422.896C420.521 88.0281 414.599 90.8426 408.531 90.8426C397.859 90.8426 391.791 83.8797 391.352 73.3703H447.787C448.958 47.292 435.195 26.566 407.637 26.566L407.653 26.5335ZM285.623 92.3067C279.994 92.3067 275.114 89.7851 275.114 83.5543C275.114 77.3235 279.848 75.1273 285.477 73.777C290.959 72.2966 297.483 71.8573 301.03 69.6285C301.615 85.474 297.629 92.2905 285.623 92.2905V92.3067ZM366.933 87.4099C361.45 87.4099 357.904 86.0922 357.904 80.0078V45.0632H372.562C368.544 51.2615 366.185 58.6961 366.185 66.9768C366.185 74.7531 367.763 81.537 370.61 87.2472C369.357 87.3286 368.121 87.4099 366.933 87.4099ZM391.368 59.2818C392.849 49.9437 398.77 43.5828 407.669 43.5828C416.096 43.5828 422.181 50.7083 422.636 59.2818H391.384H391.368Z" fill="#F9F9F9"/>
<path d="M138.346 65.8546C138.346 41.7773 118.823 22.2715 94.7462 22.2715C70.6689 22.2715 51.1631 41.7936 51.1631 65.8546C51.1631 89.9156 70.6852 109.438 94.7462 109.438C118.807 109.438 138.346 89.9156 138.346 65.8546Z" fill="#FB523D"/>
<path d="M97.6581 55.7031C97.6581 55.7031 88.4177 50.8551 86.3516 47.699C90.8905 49.5861 97.3816 50.2857 100.05 49.3096C102.701 48.3335 101.058 38.2633 98.6993 36.0996C101.563 36.7992 106.476 44.8846 106.947 47.455C109.323 45.1937 113.552 43.4204 119.881 41.8586C112.267 47.8617 110.201 51.2943 110.592 53.1652C115.326 53.6695 122.598 59.396 122.598 61.6573C117.197 57.1022 109.99 58.5826 108.607 59.5587C109.29 63.9024 108.477 71.4834 107.891 72.9639C105.727 67.6441 104.458 63.6909 102.099 61.0228C100.245 58.9405 93.3145 66.8307 92.8101 68.2135C92.2407 66.4402 94.9088 58.1596 97.6744 55.7031H97.6581Z" fill="#F9F9F9"/>
</svg>
