<svg width="16" height="16" viewBox="0 0 16 16" fill="none" xmlns="http://www.w3.org/2000/svg">
<path d="M11.2585 12.3636H3.9858V3.63636H11.2585C11.2585 4.03636 11.5858 4.36364 11.9858 4.36364C12.3858 4.36364 12.7131 4.03636 12.7131 3.63636V1.45455C12.7131 0.654545 12.0585 0 11.2585 0L3.9858 0.00727272C3.1858 0.00727272 2.53125 0.654545 2.53125 1.45455V14.5455C2.53125 15.3455 3.1858 16 3.9858 16H11.2585C12.0585 16 12.7131 15.3455 12.7131 14.5455V12.3636C12.7131 11.9636 12.3858 11.6364 11.9858 11.6364C11.5858 11.6364 11.2585 11.9636 11.2585 12.3636Z" fill="#F9F9F9"/>
<path d="M15.8964 7.74867L13.8673 5.71958C13.6346 5.48685 13.2418 5.64685 13.2418 5.97413V7.27595H10.3327C9.93274 7.27595 9.60547 7.60322 9.60547 8.00322C9.60547 8.40322 9.93274 8.73049 10.3327 8.73049H13.2418V10.0323C13.2418 10.3596 13.6346 10.5196 13.86 10.2869L15.8891 8.25776C16.0346 8.11958 16.0346 7.88685 15.8964 7.74867Z" fill="#F9F9F9"/>
</svg>
