<svg width="17" height="16" viewBox="0 0 17 16" fill="none" xmlns="http://www.w3.org/2000/svg">
<path d="M11.7597 12.3636H4.48696V3.63636H11.7597C11.7597 4.03636 12.087 4.36364 12.487 4.36364C12.887 4.36364 13.2142 4.03636 13.2142 3.63636V1.45455C13.2142 0.654545 12.5597 0 11.7597 0L4.48696 0.00727272C3.68696 0.00727272 3.03241 0.654545 3.03241 1.45455V14.5455C3.03241 15.3455 3.68696 16 4.48696 16H11.7597C12.5597 16 13.2142 15.3455 13.2142 14.5455V12.3636C13.2142 11.9636 12.887 11.6364 12.487 11.6364C12.087 11.6364 11.7597 11.9636 11.7597 12.3636Z" fill="#699753"/>
<path d="M16.3973 7.74574L14.3682 5.71665C14.1355 5.48392 13.7427 5.64393 13.7427 5.9712V7.27302H10.8337C10.4337 7.27302 10.1064 7.60029 10.1064 8.00029C10.1064 8.40029 10.4337 8.72756 10.8337 8.72756H13.7427V10.0294C13.7427 10.3567 14.1355 10.5167 14.3609 10.2839L16.39 8.25483C16.5355 8.11665 16.5355 7.88392 16.3973 7.74574Z" fill="#699753"/>
</svg>
