<svg width="14" height="16" viewBox="0 0 14 16" fill="none" xmlns="http://www.w3.org/2000/svg">
<path d="M1.59201 14.2222C1.59201 15.2 2.39201 16 3.36979 16H10.4809C11.4587 16 12.2587 15.2 12.2587 14.2222V3.55556H1.59201V14.2222ZM4.40979 8.52444C4.06312 8.17778 4.06312 7.61778 4.40979 7.27111C4.75646 6.92444 5.31646 6.92444 5.66312 7.27111L6.92535 8.52444L8.17868 7.27111C8.52535 6.92444 9.08535 6.92444 9.43201 7.27111C9.77868 7.61778 9.77868 8.17778 9.43201 8.52444L8.17868 9.77778L9.43201 11.0311C9.77868 11.3778 9.77868 11.9378 9.43201 12.2844C9.08535 12.6311 8.52535 12.6311 8.17868 12.2844L6.92535 11.0311L5.67201 12.2844C5.32535 12.6311 4.76535 12.6311 4.41868 12.2844C4.07201 11.9378 4.07201 11.3778 4.41868 11.0311L5.67201 9.77778L4.40979 8.52444ZM12.2587 0.888889H10.0365L9.40535 0.257778C9.24535 0.0977777 9.01424 0 8.78312 0H5.06757C4.83646 0 4.60535 0.0977777 4.44535 0.257778L3.81424 0.888889H1.59201C1.10312 0.888889 0.703125 1.28889 0.703125 1.77778C0.703125 2.26667 1.10312 2.66667 1.59201 2.66667H12.2587C12.7476 2.66667 13.1476 2.26667 13.1476 1.77778C13.1476 1.28889 12.7476 0.888889 12.2587 0.888889Z" fill="#F9F9F9"/>
</svg>
