<svg width="16" height="16" viewBox="0 0 16 16" fill="none" xmlns="http://www.w3.org/2000/svg">
<path d="M8.37168 4.8125C6.25883 4.8125 4.3453 5.60183 2.87029 6.88549L1.36339 5.37859C0.861087 4.87628 0 5.2271 0 5.9367V10.3936C0 10.8321 0.358786 11.1909 0.797303 11.1909H5.25423C5.96383 11.1909 6.32261 10.3298 5.82031 9.82753L4.29746 8.30469C5.40571 7.37982 6.81694 6.80576 8.37965 6.80576C10.8991 6.80576 13.0758 8.27279 14.1123 10.3936C14.3275 10.8401 14.8378 11.0634 15.3082 10.9039C15.8743 10.7205 16.1613 10.0747 15.9062 9.53253C14.5348 6.74197 11.6805 4.8125 8.37168 4.8125Z" fill="#F9F9F9" fill-opacity="0.5"/>
</svg>
