<svg width="40" height="40" viewBox="0 0 40 40" fill="none" xmlns="http://www.w3.org/2000/svg">
<rect width="40" height="40" rx="20" fill="#3B8BA8"/>
<path fill-rule="evenodd" clip-rule="evenodd" d="M17.8182 20.7266C15.8764 20.7266 12 21.7011 12 23.6357V25.0902C12 25.4902 12.3273 25.8175 12.7273 25.8175H22.9091C23.3091 25.8175 23.6364 25.4902 23.6364 25.0902V23.6357C23.6364 21.7011 19.76 20.7266 17.8182 20.7266Z" fill="#F9F9F9"/>
<path fill-rule="evenodd" clip-rule="evenodd" d="M23.3984 20.8203C24.3948 21.4967 25.093 22.413 25.093 23.6349V25.8167H27.2748C27.6748 25.8167 28.0021 25.4894 28.0021 25.0894V23.6349C28.0021 22.0494 25.4057 21.1112 23.3984 20.8203Z" fill="#F9F9F9"/>
<path d="M17.8153 19.9979C19.422 19.9979 20.7244 18.6954 20.7244 17.0888C20.7244 15.4821 19.422 14.1797 17.8153 14.1797C16.2087 14.1797 14.9062 15.4821 14.9062 17.0888C14.9062 18.6954 16.2087 19.9979 17.8153 19.9979Z" fill="#F9F9F9"/>
<path fill-rule="evenodd" clip-rule="evenodd" d="M22.1782 19.9979C23.7855 19.9979 25.0873 18.6961 25.0873 17.0888C25.0873 15.4815 23.7855 14.1797 22.1782 14.1797C21.8364 14.1797 21.5164 14.2524 21.2109 14.3542C21.8146 15.1033 22.1782 16.0561 22.1782 17.0888C22.1782 18.1215 21.8146 19.0742 21.2109 19.8233C21.5164 19.9251 21.8364 19.9979 22.1782 19.9979Z" fill="#F9F9F9"/>
</svg>
